<svg width="63.000000" height="63.000000" viewBox="0 0 63 63" fill="none" xmlns="http://www.w3.org/2000/svg" xmlns:xlink="http://www.w3.org/1999/xlink">
	<desc>
			Created with Pixso.
	</desc>
	<defs>
		<clipPath id="clip11_654">
			<rect id="dog_vet_24x" width="63.000000" height="63.000000" fill="white" fill-opacity="0"/>
		</clipPath>
	</defs>
	<rect id="dog_vet_24x" width="63.000000" height="63.000000" fill="#FFFFFF" fill-opacity="0"/>
	<g clip-path="url(#clip11_654)">
		<path id="Vector" d="M48.23 54.14L48.23 45.28L54.14 45.28L54.14 56.1C54.14 57.15 53.72 58.15 52.98 58.89C52.24 59.63 51.24 60.04 50.2 60.04L48.23 60.04L48.23 54.14Z" fill="#F6BB92" fill-opacity="1.000000" fill-rule="nonzero"/>
		<path id="Vector" d="M52.87 39.37L53.82 37.04L54.66 34.97C55.11 33.85 55.23 32.63 55.01 31.44C54.79 30.26 54.23 29.17 53.41 28.32C52.31 27.18 51.69 25.63 51.69 24.02L51.69 18.37L27.05 18.37L27.05 24.02C27.05 25.63 26.43 27.18 25.33 28.32C24.51 29.17 23.95 30.26 23.73 31.44C23.51 32.63 23.63 33.85 24.08 34.97L24.97 37.17L52.87 39.37Z" fill="#834B10" fill-opacity="1.000000" fill-rule="nonzero"/>
		<path id="Vector" d="M54.14 40.44C54.14 39.04 53.64 37.69 52.74 36.62C51.83 35.55 50.58 34.84 49.2 34.61L48.23 34.45L43.15 33.6L39.37 37.4L35.55 33.57L28.54 34.45L28.54 60.04L48.23 60.04L48.23 52.17C49.12 51.28 49.68 50.11 49.82 48.86C49.97 47.61 49.68 46.34 49.01 45.28L54.14 45.28L54.14 40.44Z" fill="#5D62B5" fill-opacity="1.000000" fill-rule="nonzero"/>
		<path id="Vector" d="M52.5 23.62L26.25 23.62L26.25 16.21C26.25 12.6 27.63 9.15 30.09 6.6C32.55 4.05 35.89 2.62 39.37 2.62C42.85 2.62 46.19 4.05 48.65 6.6C51.11 9.15 52.5 12.6 52.5 16.21L52.5 23.62Z" fill="#834B10" fill-opacity="1.000000" fill-rule="nonzero"/>
		<path id="Vector" d="M47.25 16.73L47.25 15.75L46.26 10.82L32.48 10.82L31.5 15.75L31.5 16.73C30.71 16.73 29.96 17.04 29.41 17.59C28.85 18.15 28.54 18.9 28.54 19.68C28.54 20.47 28.85 24.38 29.41 24.93C29.96 25.49 29.68 24.77 30.46 24.77L30.18 24.93L31.5 24.93C31.5 26.76 33.21 27.2 34.5 28.49C35.79 29.78 37.54 30.51 39.37 30.51C41.2 30.51 42.95 29.78 44.24 28.49C45.53 27.2 46.26 26.6 46.26 24.77L47.25 24.93L48.56 24.93C49.34 24.93 48.78 25.33 49.33 24.77C49.89 24.22 50.2 20.47 50.2 19.68C50.2 18.9 49.89 18.15 49.33 17.59C48.78 17.04 48.03 16.73 47.25 16.73Z" fill="#F6BB92" fill-opacity="1.000000" fill-rule="nonzero"/>
		<path id="Vector" d="M38.39 41.16L38.39 60.04L16.36 60.04C17.09 58.9 17.95 57.84 18.91 56.88L18.98 56.8C20.74 55.05 22.15 52.97 23.13 50.68C23.52 49.78 23.9 48.88 24.18 48.23C24.44 47.64 24.6 47.25 24.6 47.25L21.77 47.25C20.89 47.24 20.04 46.95 19.35 46.41C18.66 45.87 18.17 45.11 17.95 44.26L17.47 42.32L17.34 41.82C17.27 41.53 17.26 41.22 17.33 40.93C17.39 40.64 17.52 40.36 17.7 40.13C17.88 39.89 18.12 39.7 18.39 39.57C18.66 39.44 18.95 39.37 19.25 39.37L22.64 39.37C23.27 37.46 24.57 35.85 26.29 34.81L26.72 34.56C27.83 33.89 29.08 33.52 30.37 33.47C31.66 33.42 32.95 33.7 34.1 34.27L34.14 34.3C35.42 34.93 36.49 35.91 37.24 37.13C37.99 38.34 38.39 39.74 38.39 41.16Z" fill="#4B4B4B" fill-opacity="1.000000" fill-rule="nonzero"/>
		<path id="Vector" d="M38.39 41.34L38.39 44.13C38.39 44.75 38.19 45.36 37.83 45.86C37.47 46.36 36.95 46.74 36.37 46.93C35.76 47.14 35.1 47.14 34.5 46.93C33.91 46.74 33.4 46.36 33.04 45.86C32.67 45.36 32.48 44.75 32.48 44.13L32.48 39.37L36.42 39.37L38.39 41.34Z" fill="#000000" fill-opacity="1.000000" fill-rule="nonzero"/>
		<path id="Vector" d="M29.24 45.97L27.27 47.94C27.08 48.13 26.83 48.23 26.57 48.23L24.18 48.23C24.44 47.64 24.6 47.25 24.6 47.25L21.77 47.25C20.81 47.25 19.89 46.9 19.17 46.26L26.17 46.26L27.85 44.58C28.03 44.4 28.28 44.29 28.54 44.29C28.8 44.29 29.05 44.4 29.24 44.58C29.42 44.76 29.53 45.02 29.53 45.28C29.53 45.54 29.42 45.79 29.24 45.97Z" fill="#000000" fill-opacity="1.000000" fill-rule="nonzero"/>
		<path id="Vector" d="M20.67 39.37L20.67 40.56C20.67 41.03 20.48 41.48 20.15 41.81C19.82 42.14 19.37 42.32 18.9 42.32L17.47 42.32L17.34 41.82C17.27 41.53 17.26 41.22 17.33 40.93C17.39 40.64 17.52 40.36 17.7 40.13C17.88 39.89 18.12 39.7 18.39 39.57C18.66 39.44 18.95 39.37 19.25 39.37L20.67 39.37Z" fill="#000000" fill-opacity="1.000000" fill-rule="nonzero"/>
		<path id="Vector" d="M23.72 57.61C23.54 57.61 23.36 57.56 23.2 57.46C23.05 57.37 22.92 57.23 22.84 57.07C22.76 56.9 22.72 56.72 22.74 56.54C22.76 56.36 22.82 56.18 22.93 56.04C24.11 54.47 25.02 52.73 25.64 50.87C25.68 50.75 25.74 50.63 25.83 50.53C25.91 50.43 26.02 50.35 26.13 50.3C26.25 50.24 26.37 50.2 26.5 50.19C26.63 50.18 26.76 50.2 26.89 50.24C27.01 50.28 27.12 50.35 27.22 50.43C27.32 50.52 27.4 50.62 27.46 50.74C27.52 50.85 27.55 50.98 27.56 51.11C27.57 51.24 27.55 51.37 27.51 51.49C26.82 53.55 25.81 55.48 24.51 57.22C24.42 57.34 24.3 57.44 24.16 57.51C24.02 57.58 23.87 57.61 23.72 57.61Z" fill="#000000" fill-opacity="1.000000" fill-rule="nonzero"/>
		<path id="Vector" d="M31.5 16.73C32.42 16.42 33.27 15.91 33.98 15.25C34.69 14.58 35.24 13.76 35.6 12.85L36.42 10.82L31.5 9.84L31.5 16.73Z" fill="#834B10" fill-opacity="1.000000" fill-rule="nonzero"/>
		<path id="Vector" d="M36.42 10.82L36.53 11C37.71 12.76 39.3 14.21 41.17 15.21C43.04 16.21 45.13 16.73 47.25 16.73L47.25 9.84L36.42 10.82Z" fill="#834B10" fill-opacity="1.000000" fill-rule="nonzero"/>
		<path id="Vector" d="M36.58 19.6C36.58 20.28 36.03 20.83 35.35 20.83C34.67 20.83 34.12 20.28 34.12 19.6C34.12 18.92 34.67 18.37 35.35 18.37C36.03 18.37 36.58 18.92 36.58 19.6Z" fill="#000000" fill-opacity="1.000000" fill-rule="evenodd"/>
		<path id="Vector" d="M41.83 19.6C41.83 20.28 41.28 20.83 40.6 20.83C39.92 20.83 39.37 20.28 39.37 19.6C39.37 18.92 39.92 18.37 40.6 18.37C41.28 18.37 41.83 18.92 41.83 19.6Z" fill="#000000" fill-opacity="1.000000" fill-rule="evenodd"/>
		<path id="Vector" d="M45.28 42.32C45.02 42.32 44.77 42.22 44.58 42.03C44.4 41.85 44.29 41.6 44.29 41.34L44.29 34.45C44.29 34.19 44.4 33.94 44.58 33.75C44.77 33.57 45.02 33.46 45.28 33.46C45.54 33.46 45.79 33.57 45.97 33.75C46.16 33.94 46.26 34.19 46.26 34.45L46.26 41.34C46.26 41.6 46.16 41.85 45.97 42.03C45.79 42.22 45.54 42.32 45.28 42.32Z" fill="#C3C3C3" fill-opacity="1.000000" fill-rule="nonzero"/>
		<path id="Vector" d="M48.23 44.29C48.23 45.92 46.91 47.25 45.28 47.25C43.65 47.25 42.32 45.92 42.32 44.29C42.32 42.66 43.65 41.34 45.28 41.34C46.91 41.34 48.23 42.66 48.23 44.29Z" fill="#E4E4E2" fill-opacity="1.000000" fill-rule="evenodd"/>
		<path id="Vector" d="M46.26 44.29C46.26 44.84 45.82 45.28 45.28 45.28C44.73 45.28 44.29 44.84 44.29 44.29C44.29 43.75 44.73 43.31 45.28 43.31C45.82 43.31 46.26 43.75 46.26 44.29Z" fill="#C3C3C3" fill-opacity="1.000000" fill-rule="evenodd"/>
		<path id="Vector" d="M49.21 60.04L34.45 60.04C33.66 60.04 32.91 59.73 32.36 59.18C31.81 58.62 31.5 57.87 31.5 57.09C31.5 56.31 31.81 55.55 32.36 55C32.91 54.45 33.66 54.14 34.45 54.14L35.43 54.14C35.43 53.61 35.64 53.11 36.01 52.74C36.38 52.37 36.88 52.17 37.4 52.17L37.57 52.17C38.09 52.17 38.59 52.37 38.96 52.74L40.35 54.14L49.21 54.14L49.21 60.04Z" fill="#F6BB92" fill-opacity="1.000000" fill-rule="nonzero"/>
		<path id="Vector" d="M16.47 55.47C16.32 55.79 16.25 56.14 16.25 56.5C16.25 56.85 16.33 57.2 16.48 57.52C16.63 57.84 16.85 58.13 17.12 58.35C17.39 58.58 17.7 58.75 18.04 58.85L21.83 59.92C22.58 60.13 23.39 60.04 24.08 59.65C24.76 59.27 25.26 58.63 25.48 57.88C25.69 57.13 25.59 56.32 25.21 55.63C24.83 54.95 24.19 54.45 23.44 54.23L22.49 53.97C22.56 53.72 22.58 53.46 22.55 53.2C22.52 52.94 22.44 52.7 22.31 52.47C22.19 52.24 22.02 52.05 21.82 51.89C21.61 51.73 21.38 51.61 21.13 51.54L20.97 51.49C20.72 51.42 20.46 51.4 20.2 51.43C19.95 51.46 19.7 51.54 19.47 51.67C18.36 52.29 17.47 53.26 16.94 54.42L16.47 55.47Z" fill="#F6BB92" fill-opacity="1.000000" fill-rule="nonzero"/>
		<path id="Vector" d="M11.44 23.62C12.39 23.62 13.29 24.05 13.96 24.83L15.75 26.9L17.53 24.83C18.2 24.05 19.1 23.62 20.04 23.62C20.84 23.62 21.61 23.93 22.23 24.49C22.85 25.06 23.3 25.85 23.49 26.74C23.71 27.75 23.65 28.81 23.33 29.78C23.01 30.75 22.43 31.58 21.69 32.15L15.75 36.75L9.8 32.15C9.06 31.58 8.48 30.75 8.16 29.78C7.84 28.81 7.78 27.75 8 26.74C8.19 25.85 8.64 25.06 9.26 24.49C9.88 23.93 10.65 23.62 11.44 23.62Z" fill="#5D62B5" fill-opacity="1.000000" fill-rule="nonzero"/>
		<path id="Vector" d="M31.5 16.73L32.48 16.73L32.48 22.64L31.5 22.64L31.5 16.73Z" fill="#EEB58E" fill-opacity="1.000000" fill-rule="nonzero"/>
		<path id="Vector" d="M46.26 16.73L47.25 16.73L47.25 22.64L46.26 22.64L46.26 16.73Z" fill="#EEB58E" fill-opacity="1.000000" fill-rule="nonzero"/>
		<path id="Vector" d="M35.55 33.57L39.37 37.4L43.15 33.6C42.92 33.56 42.71 33.44 42.56 33.27C42.41 33.09 42.32 32.86 42.32 32.63L42.32 29.53L36.42 29.53L36.42 32.59C36.42 32.83 36.33 33.07 36.17 33.25C36.01 33.43 35.79 33.54 35.55 33.57Z" fill="#F6BB92" fill-opacity="1.000000" fill-rule="nonzero"/>
		<path id="Vector" d="M39.37 31.5C36.59 31.5 33.91 30.53 31.95 28.8C29.98 27.08 28.87 24.74 28.87 22.31L28.87 21L49.87 21L49.87 22.31C49.87 24.74 48.76 27.08 46.79 28.8C44.83 30.53 42.15 31.5 39.37 31.5Z" fill="#5D62B5" fill-opacity="1.000000" fill-rule="nonzero"/>
		<path id="Vector" d="M28.54 40.35C28.54 40.9 28.1 41.34 27.56 41.34C27.01 41.34 26.57 40.9 26.57 40.35C26.57 39.81 27.01 39.37 27.56 39.37C28.1 39.37 28.54 39.81 28.54 40.35Z" fill="#000000" fill-opacity="1.000000" fill-rule="evenodd"/>
	</g>
</svg>
