<svg width="63.000000" height="63.000000" viewBox="0 0 63 63" fill="none" xmlns="http://www.w3.org/2000/svg" xmlns:xlink="http://www.w3.org/1999/xlink">
	<desc>
			Created with Pixso.
	</desc>
	<defs>
		<clipPath id="clip11_710">
			<rect id="dog_love_24x" width="63.000000" height="63.000000" fill="white" fill-opacity="0"/>
		</clipPath>
	</defs>
	<rect id="dog_love_24x" width="63.000000" height="63.000000" fill="#FFFFFF" fill-opacity="0"/>
	<g clip-path="url(#clip11_710)">
		<path id="Vector" d="M60.04 23.95L60.04 25.22C60.04 29.21 59.06 33.13 57.17 36.64C55.28 40.15 52.56 43.14 49.24 45.34L38.39 52.52L34.45 55.13L31.5 57.09L30.51 56.44L27.56 54.51L26.14 53.58L15.53 46.63L14.14 45.72L13.85 45.53C10.5 43.34 7.75 40.34 5.85 36.82C3.95 33.29 2.95 29.35 2.95 25.35L2.95 22.5C2.95 19.37 3.84 16.31 5.52 13.68C6.84 11.59 8.67 9.88 10.83 8.69C12.99 7.51 15.42 6.89 17.89 6.89L18.26 6.89C20.53 6.89 22.78 7.42 24.81 8.43C26.85 9.45 28.62 10.93 29.99 12.75L31.5 14.76L33 12.75C34.46 10.81 36.36 9.27 38.56 8.25C40.75 7.23 43.16 6.77 45.58 6.91C47.99 7.05 50.33 7.78 52.4 9.05C54.46 10.31 56.18 12.07 57.39 14.16C59.13 17.13 60.04 20.51 60.04 23.95Z" fill="#5D62B5" fill-opacity="1.000000" fill-rule="nonzero"/>
		<path id="Vector" d="M34.45 46.75L34.45 55.12L34.45 55.13L38.39 52.52L38.39 43.68L34.45 46.75Z" fill="#EA9D2D" fill-opacity="1.000000" fill-rule="nonzero"/>
		<path id="Vector" d="M44.29 20.67L44.29 23.13C44.29 23.45 44.23 23.77 44.1 24.07C43.98 24.37 43.8 24.64 43.57 24.87C43.34 25.1 43.07 25.28 42.77 25.4C42.47 25.53 42.15 25.59 41.83 25.59L39.37 25.59L39.37 31.5L39.01 32.48L39.63 33.46L40.11 37.06C40.23 37.94 40.27 38.83 40.22 39.72C40.14 41.41 39.49 43.02 38.39 44.29L34.45 47.25L34.45 55.13L31.5 57.09L30.51 56.44L30.51 49.21L26.14 53.58L15.53 46.63L23.62 35.43L25.59 32.48L28.17 29.9L29.47 29.58L29.53 28.54L29.53 25.8C29.53 23.14 30.58 20.6 32.46 18.72C33.1 18.07 33.97 17.71 34.88 17.71L37.01 17.71C37.89 17.71 38.74 18.06 39.36 18.68L41.34 20.67L44.29 20.67Z" fill="#FBB540" fill-opacity="1.000000" fill-rule="nonzero"/>
		<path id="Vector" d="M35.43 20.67L37.4 20.67L37.4 22.64L35.43 22.64L35.43 20.67Z" fill="#985713" fill-opacity="1.000000" fill-rule="nonzero"/>
		<path id="Vector" d="M39.63 33.46L38.21 33.46C36.23 33.46 34.28 33 32.51 32.12L28.17 29.9L29.53 28.54L29.53 28.39L33.39 30.36C34.89 31.1 36.54 31.49 38.21 31.5L39.37 31.5L39.63 33.46Z" fill="#5D62B5" fill-opacity="1.000000" fill-rule="nonzero"/>
		<path id="Vector" d="M31.74 29.53L29.53 29.53L29.53 27.56L31.74 27.56C31.94 27.56 32.12 27.48 32.26 27.34C32.4 27.2 32.48 27.01 32.48 26.82L32.48 23.62L34.45 23.62L34.45 26.82C34.45 27.54 34.16 28.22 33.65 28.73C33.15 29.24 32.46 29.53 31.74 29.53Z" fill="#985713" fill-opacity="1.000000" fill-rule="nonzero"/>
		<path id="Vector" d="M31.5 35.43L31.5 37.4C31.5 38.18 31.18 38.94 30.63 39.49C30.08 40.04 29.33 40.35 28.54 40.35L28.54 43.94C28.54 44.81 28.28 45.66 27.8 46.39L26.57 48.23L26.57 51.18L26.93 51.9L27.23 52.5L27.56 53.15L27.56 54.51L26.14 53.58L15.53 46.63L14.14 45.72L19.68 37.4L19.68 34.32C19.68 34.25 19.68 34.17 19.69 34.09C19.75 32.65 20.29 31.28 21.24 30.19L22.64 28.54L23.62 32.48L25.98 32.48C26.46 32.48 26.94 32.6 27.37 32.83C27.8 33.06 28.16 33.39 28.43 33.79C28.77 34.3 29.23 34.71 29.76 35C30.29 35.28 30.89 35.43 31.5 35.43Z" fill="#E4E4E2" fill-opacity="1.000000" fill-rule="nonzero"/>
		<path id="Vector" d="M24.6 35.43L26.57 35.43L26.57 37.4L24.6 37.4L24.6 35.43Z" fill="#29C3BE" fill-opacity="1.000000" fill-rule="nonzero"/>
	</g>
</svg>
