<svg width="63.000000" height="63.000000" viewBox="0 0 63 63" fill="none" xmlns="http://www.w3.org/2000/svg" xmlns:xlink="http://www.w3.org/1999/xlink">
	<desc>
			Created with Pixso.
	</desc>
	<defs>
		<clipPath id="clip11_721">
			<rect id="dog_stream_24x" width="63.000000" height="63.000000" fill="white" fill-opacity="0"/>
		</clipPath>
	</defs>
	<rect id="dog_stream_24x" width="63.000000" height="63.000000" fill="#FFFFFF" fill-opacity="0"/>
	<g clip-path="url(#clip11_721)">
		<path id="Vector" d="M4.61 5.25L58.38 5.25C59.48 5.25 60.37 6.14 60.37 7.25L60.37 45.25C60.37 46.35 59.48 47.25 58.38 47.25L4.61 47.25C3.51 47.25 2.62 46.35 2.62 45.25L2.62 7.25C2.62 6.14 3.51 5.25 4.61 5.25Z" fill="#5D62B5" fill-opacity="1.000000" fill-rule="evenodd"/>
		<path id="Vector" d="M27.56 24.28L21.65 30.18C21.48 30.1 21.3 30 21.14 29.9C20.16 29.3 19.34 28.48 18.75 27.5C18.15 26.53 17.8 25.42 17.73 24.28C17.72 24.12 17.71 23.97 17.71 23.81L17.71 21.32L23.62 21.32L27.56 24.28Z" fill="#F3AF3E" fill-opacity="1.000000" fill-rule="nonzero"/>
		<path id="Vector" d="M25.59 27.23L23.13 28.71L21.14 29.9C20.16 29.3 19.34 28.48 18.75 27.5C18.15 26.53 17.8 25.42 17.73 24.28L22.73 24.28L25.1 26.73L25.59 27.23Z" fill="#5B3726" fill-opacity="1.000000" fill-rule="nonzero"/>
		<path id="Vector" d="M45.28 21.32L45.28 23.81C45.28 23.97 45.27 24.12 45.26 24.28C45.18 25.52 44.77 26.72 44.09 27.75C43.4 28.79 42.45 29.63 41.34 30.18L35.43 24.28L39.37 21.32L45.28 21.32Z" fill="#F3AF3E" fill-opacity="1.000000" fill-rule="nonzero"/>
		<path id="Vector" d="M45.26 24.28C45.19 25.34 44.88 26.38 44.36 27.31C43.84 28.24 43.11 29.04 42.24 29.65L39.37 28.21L37.4 27.23L37.89 26.73L40.26 24.28L45.26 24.28Z" fill="#5B3726" fill-opacity="1.000000" fill-rule="nonzero"/>
		<path id="Vector" d="M42.32 32.15L42.32 44.95L20.67 44.95L20.67 32.15C20.67 29.28 21.81 26.53 23.84 24.49C25.87 22.46 28.62 21.32 31.5 21.32C34.37 21.32 37.12 22.46 39.15 24.49C41.18 26.53 42.32 29.28 42.32 32.15Z" fill="#F3AF3E" fill-opacity="1.000000" fill-rule="nonzero"/>
		<path id="Vector" d="M26.26 28.28L29.22 27.3L29.84 29.16L26.89 30.15L26.26 28.28Z" fill="#D18D28" fill-opacity="1.000000" fill-rule="nonzero"/>
		<path id="Vector" d="M33.15 29.13L33.77 27.26L36.73 28.25L36.11 30.12L33.15 29.13Z" fill="#D18D28" fill-opacity="1.000000" fill-rule="nonzero"/>
		<path id="Vector" d="M37.63 35.88L36.75 34.12C35.97 34.51 33.31 36.66 32.48 36.41L32.48 34.12L30.51 34.12L30.51 36.41C29.68 36.66 27.03 34.51 26.25 34.12L25.36 35.88C26.04 36.22 28.53 38.48 29.29 38.51C30.04 38.55 30.79 38.42 31.5 38.15C32.2 38.42 32.95 38.55 33.71 38.51C34.46 38.48 36.95 36.22 37.63 35.88Z" fill="#744630" fill-opacity="1.000000" fill-rule="nonzero"/>
		<path id="Vector" d="M23.62 42C23.62 42.34 23.53 42.68 23.36 42.98L20.67 42.98L20.67 39.04C21.45 39.04 22.2 39.35 22.76 39.91C23.31 40.46 23.62 41.21 23.62 42Z" fill="#D18D28" fill-opacity="1.000000" fill-rule="nonzero"/>
		<path id="Vector" d="M42.32 39.04L42.32 42.98L39.63 42.98C39.46 42.68 39.37 42.34 39.37 42C39.37 41.21 39.68 40.46 40.23 39.91C40.79 39.35 41.54 39.04 42.32 39.04Z" fill="#D18D28" fill-opacity="1.000000" fill-rule="nonzero"/>
		<path id="Vector" d="M20.67 43.96L18.7 43.96C18.18 43.96 17.68 43.76 17.31 43.39C16.94 43.02 16.73 42.52 16.73 42C16.73 41.21 17.04 40.46 17.59 39.91C18.15 39.35 18.9 39.04 19.68 39.04C20.47 39.04 21.22 39.35 21.77 39.91C22.32 40.46 22.64 41.21 22.64 42C22.64 42.52 22.43 43.02 22.06 43.39C21.69 43.76 21.19 43.96 20.67 43.96Z" fill="#F3AF3E" fill-opacity="1.000000" fill-rule="nonzero"/>
		<path id="Vector" d="M44.29 43.96L42.32 43.96C41.8 43.96 41.3 43.76 40.93 43.39C40.56 43.02 40.35 42.52 40.35 42C40.35 41.21 40.67 40.46 41.22 39.91C41.77 39.35 42.52 39.04 43.31 39.04C44.09 39.04 44.84 39.35 45.4 39.91C45.95 40.46 46.26 41.21 46.26 42C46.26 42.52 46.05 43.02 45.68 43.39C45.31 43.76 44.81 43.96 44.29 43.96Z" fill="#F3AF3E" fill-opacity="1.000000" fill-rule="nonzero"/>
		<path id="Vector" d="M31.5 35.1C30.97 35.1 30.47 34.9 30.1 34.53C29.73 34.16 29.53 33.66 29.53 33.14L29.53 31.17L33.46 31.17L33.46 33.14C33.46 33.66 33.26 34.16 32.89 34.53C32.52 34.9 32.02 35.1 31.5 35.1Z" fill="#5B3726" fill-opacity="1.000000" fill-rule="nonzero"/>
		<path id="Vector" d="M40.35 53.48L22.64 53.48L22.8 53.31C24.59 51.53 25.59 49.11 25.59 46.59L37.4 46.59C37.4 49.11 38.4 51.53 40.19 53.31L40.35 53.48Z" fill="#D9D9D9" fill-opacity="1.000000" fill-rule="nonzero"/>
		<path id="Vector" d="M58.38 47.25L4.61 47.25C4.08 47.25 3.58 47.02 3.2 46.63C2.83 46.24 2.62 45.7 2.62 45.15L2.62 42L60.37 42L60.37 45.15C60.37 45.7 60.16 46.24 59.79 46.63C59.41 47.02 58.91 47.25 58.38 47.25Z" fill="#E4E4E2" fill-opacity="1.000000" fill-rule="nonzero"/>
		<path id="Vector" d="M22.64 53.48L40.35 53.48C40.88 53.48 41.38 53.69 41.75 54.06C42.12 54.43 42.32 54.93 42.32 55.45L42.32 57.42L20.67 57.42L20.67 55.45C20.67 54.93 20.87 54.43 21.24 54.06C21.61 53.69 22.11 53.48 22.64 53.48Z" fill="#E4E4E2" fill-opacity="1.000000" fill-rule="nonzero"/>
		<path id="Vector" d="M37.61 48.56L25.38 48.56C25.52 47.91 25.59 47.25 25.59 46.59L37.4 46.59C37.4 47.25 37.47 47.91 37.61 48.56Z" fill="#A8A8A8" fill-opacity="1.000000" fill-rule="nonzero"/>
		<circle id="Ellipse 2" cx="55.125000" cy="10.500000" r="2.625000" fill="#62B58F" fill-opacity="1.000000"/>
	</g>
</svg>
