<svg width="26" height="24" viewBox="0 0 26 24" fill="none" xmlns="http://www.w3.org/2000/svg">
<path d="M17.2904 3H8.98422C6.1635 3 3.86865 5.22841 3.86865 7.96735V16.0327C3.86865 18.7717 6.1635 21 8.98422 21H17.2904C20.1113 21 22.4061 18.7716 22.4061 16.0327V7.96735C22.4062 5.22841 20.1113 3 17.2904 3ZM20.7615 16.0327C20.7615 17.8911 19.2044 19.403 17.2905 19.403H8.98422C7.0704 19.4031 5.51339 17.8911 5.51339 16.0327V7.96735C5.51339 6.10903 7.0704 4.59705 8.98422 4.59705H17.2904C19.2043 4.59705 20.7614 6.10903 20.7614 7.96735L20.7615 16.0327Z" fill="#F2726F"/>
<path d="M13.1374 7.36206C10.5035 7.36206 8.36071 9.44269 8.36071 12.0002C8.36071 14.5576 10.5035 16.6381 13.1374 16.6381C15.7712 16.6381 17.914 14.5576 17.914 12.0002C17.914 9.44269 15.7712 7.36206 13.1374 7.36206ZM13.1374 15.041C11.4105 15.041 10.0054 13.6769 10.0054 12.0001C10.0054 10.3232 11.4104 8.959 13.1374 8.959C14.8643 8.959 16.2693 10.3232 16.2693 12.0001C16.2693 13.6769 14.8642 15.041 13.1374 15.041Z" fill="#F2726F"/>
<path d="M18.1144 6.00781C17.7975 6.00781 17.4862 6.13238 17.2624 6.35065C17.0375 6.56784 16.9082 6.87022 16.9082 7.17898C16.9082 7.48678 17.0376 7.78905 17.2624 8.00732C17.4861 8.22451 17.7975 8.35015 18.1144 8.35015C18.4323 8.35015 18.7427 8.22451 18.9674 8.00732C19.1922 7.78905 19.3205 7.48668 19.3205 7.17898C19.3205 6.87022 19.1922 6.56784 18.9674 6.35065C18.7438 6.13238 18.4323 6.00781 18.1144 6.00781Z" fill="#F2726F"/>
</svg>
