<svg width="180" height="39" viewBox="0 0 180 39" fill="none" xmlns="http://www.w3.org/2000/svg">
<path d="M52.168 10.9878H56.694V28.4306H52.168V10.9878ZM58.4893 21.8446C58.4893 17.5307 61.2653 14.9567 65.55 14.9567C69.8346 14.9567 72.6106 17.5307 72.6106 21.8446C72.6106 26.1586 69.8949 28.747 65.55 28.747C61.205 28.747 58.4893 26.2305 58.4893 21.8446ZM68.0695 21.8446C68.0695 19.4719 67.0888 18.0771 65.55 18.0771C64.0111 18.0771 63.0455 19.5151 63.0455 21.8446C63.0455 24.1742 63.996 25.5834 65.55 25.5834C67.1039 25.5834 68.0695 24.2605 68.0695 21.859V21.8446ZM74.3154 29.279H78.6604C78.8671 29.7169 79.2167 30.0794 79.6571 30.3126C80.0975 30.5458 80.6052 30.6372 81.1044 30.5732C82.8243 30.5732 83.7295 29.6817 83.7295 28.3875V25.9717H83.639C83.2784 26.7121 82.6933 27.3325 81.9591 27.7529C81.225 28.1732 80.3755 28.3742 79.5203 28.33C76.2163 28.33 74.0287 25.9285 74.0287 21.8015C74.0287 17.6745 76.1107 15.0717 79.5807 15.0717C80.4626 15.0387 81.3341 15.2635 82.0783 15.7158C82.8225 16.1681 83.4039 16.8265 83.7446 17.6026V17.6026V15.2011H88.2707V28.2868C88.2707 31.436 85.3589 33.3917 81.0592 33.3917C77.0612 33.3917 74.5719 31.6805 74.3154 29.2934V29.279ZM83.7446 21.8302C83.7446 19.7308 82.7338 18.4078 81.1346 18.4078C79.5354 18.4078 78.5548 19.7164 78.5548 21.8302C78.5548 23.9441 79.5203 25.1376 81.1346 25.1376C82.7489 25.1376 83.7446 23.9729 83.7446 21.8446V21.8302ZM89.9755 21.8302C89.9755 17.5163 92.7514 14.9423 97.0361 14.9423C101.321 14.9423 104.112 17.5163 104.112 21.8302C104.112 26.1442 101.396 28.7326 97.0361 28.7326C92.676 28.7326 89.9755 26.2305 89.9755 21.8446V21.8302ZM99.5556 21.8302C99.5556 19.4576 98.5749 18.0627 97.0361 18.0627C95.4972 18.0627 94.6071 19.5151 94.6071 21.859C94.6071 24.2029 95.5576 25.5978 97.0964 25.5978C98.6353 25.5978 99.5556 24.2605 99.5556 21.859V21.8302ZM105.832 12.0663C105.82 11.6307 105.944 11.2016 106.188 10.8334C106.433 10.4651 106.786 10.1743 107.204 9.99775C107.622 9.82122 108.085 9.76694 108.536 9.84179C108.986 9.91665 109.403 10.1173 109.734 10.4182C110.064 10.7191 110.293 11.1069 110.393 11.5322C110.492 11.9575 110.456 12.4014 110.29 12.8074C110.124 13.2134 109.836 13.5633 109.461 13.8129C109.086 14.0624 108.642 14.2002 108.185 14.2089C107.882 14.2287 107.578 14.1886 107.292 14.0911C107.006 13.9936 106.745 13.8408 106.524 13.6423C106.303 13.4438 106.127 13.2039 106.008 12.9376C105.889 12.6714 105.829 12.3845 105.832 12.0951V12.0663ZM105.832 15.2299H110.358V28.4306H105.832V15.2299ZM126.787 21.8302C126.787 26.1442 124.781 28.6032 121.341 28.6032C120.459 28.6571 119.581 28.4516 118.825 28.0144C118.07 27.5772 117.473 26.9294 117.117 26.1586H117.026V32.6583H112.5V15.2011H117.026V17.5594H117.117C117.457 16.7759 118.042 16.1112 118.792 15.6558C119.543 15.2004 120.422 14.9764 121.311 15.0142C124.781 15.0717 126.848 17.545 126.848 21.859L126.787 21.8302ZM122.261 21.8302C122.261 19.7308 121.25 18.3935 119.666 18.3935C118.082 18.3935 117.071 19.7452 117.056 21.8302C117.041 23.9153 118.082 25.2527 119.666 25.2527C121.25 25.2527 122.261 23.9441 122.261 21.859V21.8302ZM134.557 14.9279C138.314 14.9279 140.592 16.6247 140.697 19.3425H136.579C136.579 18.4078 135.764 17.8183 134.512 17.8183C133.259 17.8183 132.701 18.2784 132.701 18.9543C132.701 19.6301 133.199 19.8458 134.21 20.0471L137.107 20.608C139.867 21.1688 141.044 22.2329 141.044 24.2317C141.044 26.9639 138.434 28.7182 134.587 28.7182C130.74 28.7182 128.22 26.9639 128.024 24.2748H132.384C132.52 25.2527 133.335 25.8279 134.663 25.8279C135.99 25.8279 136.594 25.4108 136.594 24.7206C136.594 24.0304 136.171 23.8866 135.085 23.6709L132.475 23.1388C129.774 22.6068 128.356 21.2407 128.356 19.2275C128.386 16.6391 130.815 14.9567 134.557 14.9567V14.9279ZM156.146 28.4019H151.786V25.9429H151.696C151.456 26.7685 150.927 27.4911 150.197 27.9907C149.467 28.4903 148.58 28.7369 147.682 28.6895C146.995 28.7267 146.307 28.6229 145.665 28.3849C145.023 28.147 144.442 27.7804 143.962 27.3102C143.481 26.8399 143.112 26.2767 142.879 25.6588C142.647 25.0409 142.556 24.3826 142.613 23.7284V15.2011H147.139V22.7362C147.139 24.3036 147.984 25.1376 149.387 25.1376C149.716 25.1383 150.042 25.0719 150.342 24.9429C150.641 24.8139 150.909 24.6253 151.126 24.3897C151.343 24.1541 151.505 23.877 151.601 23.5769C151.696 23.2769 151.723 22.9608 151.68 22.6499V15.2011H156.206L156.146 28.4019ZM158.334 15.2011H162.709V17.7464H162.799C163.04 16.9317 163.556 16.216 164.269 15.7112C164.981 15.2064 165.849 14.941 166.737 14.9567C167.64 14.8877 168.537 15.1453 169.25 15.6782C169.963 16.2111 170.439 16.9803 170.584 17.8326H170.675C170.948 16.9712 171.515 16.221 172.285 15.7003C173.056 15.1796 173.986 14.918 174.929 14.9567C175.545 14.9369 176.158 15.0409 176.728 15.2617C177.299 15.4826 177.814 15.8154 178.241 16.2385C178.668 16.6616 178.997 17.1656 179.206 17.7177C179.415 18.2699 179.5 18.8577 179.455 19.4432V28.4306H174.929V20.5936C174.929 19.1556 174.25 18.4941 172.983 18.4941C172.7 18.4918 172.421 18.5473 172.162 18.6569C171.904 18.7665 171.674 18.9276 171.486 19.1293C171.299 19.331 171.159 19.5686 171.077 19.8262C170.994 20.0838 170.97 20.3552 171.007 20.6223V28.4306H166.707V20.5361C166.707 19.2131 166.028 18.4941 164.791 18.4941C164.505 18.4942 164.223 18.552 163.962 18.6638C163.701 18.7756 163.468 18.9388 163.279 19.1426C163.089 19.3465 162.947 19.5863 162.862 19.8463C162.777 20.1063 162.75 20.3806 162.784 20.6511V28.4306H158.258L158.334 15.2011Z" fill="#4B4B4B"/>
<path d="M39.5101 11.7788C38.7423 10.1055 37.7261 8.54614 36.4927 7.14851C34.6694 5.02077 32.394 3.2852 29.8163 2.05602C27.2386 0.826844 24.417 0.131934 21.5372 0.0170269C18.6574 -0.0978801 15.7847 0.369818 13.1082 1.38935C10.4318 2.40887 8.01214 3.95711 6.00865 5.93216C4.00515 7.9072 2.46321 10.2643 1.4843 12.8482C0.505395 15.4322 0.111715 18.1845 0.329178 20.9239C0.546641 23.6634 1.37032 26.3278 2.74599 28.742C4.12166 31.1562 6.01814 33.2653 8.31061 34.9305C9.78157 36.0203 11.4069 36.9063 13.1384 37.562C15.5659 38.5102 18.1639 38.9986 20.7874 39C26.2026 38.9886 31.3922 36.9311 35.2186 33.2787C39.0449 29.6262 41.1958 24.6768 41.1998 19.5152C41.2038 16.8528 40.6284 14.2186 39.5101 11.7788V11.7788ZM20.7723 3.97055C23.1282 3.97031 25.4556 4.4611 27.5915 5.40854V5.40854C27.0707 5.62304 26.5231 5.77286 25.9621 5.85432C24.1164 6.10898 22.4066 6.92573 21.0879 8.18267C19.7691 9.43961 18.9122 11.0693 18.6451 12.8286C18.5278 13.8152 18.057 14.7331 17.3122 15.4273C16.5673 16.1215 15.594 16.5496 14.5565 16.6392C12.7108 16.8939 11.001 17.7107 9.68225 18.9676C8.36353 20.2245 7.50662 21.8543 7.23944 23.6135C7.14899 24.5516 6.72905 25.4332 6.04759 26.1156V26.1156C4.8718 23.7476 4.34361 21.1346 4.51216 18.5197C4.68071 15.9049 5.54052 13.3731 7.01159 11.1601C8.48265 8.94714 10.5172 7.12481 12.9258 5.86273C15.3344 4.60064 18.0388 3.93983 20.7874 3.94179L20.7723 3.97055ZM8.29552 29.5812C8.47656 29.423 8.6576 29.2792 8.83865 29.1066C10.1808 27.8663 11.0424 26.229 11.2827 24.4619C11.3801 23.4686 11.8454 22.5408 12.5953 21.8448C13.3168 21.1289 14.2879 20.6891 15.326 20.6081C17.1717 20.3534 18.8815 19.5367 20.2002 18.2797C21.519 17.0228 22.3759 15.3931 22.6431 13.6338C22.7083 12.5949 23.1761 11.6161 23.9556 10.8873C24.6949 10.1853 25.6754 9.76149 26.7165 9.69375C28.4121 9.47138 29.9935 8.7529 31.2425 7.63743C32.6647 8.76204 33.8696 10.1149 34.803 11.635C34.7457 11.7089 34.6799 11.7764 34.6069 11.8364C33.8867 12.5585 32.9168 13.008 31.8762 13.1018C30.0286 13.352 28.3161 14.1673 26.9966 15.4251C25.677 16.6828 24.8216 18.315 24.5591 20.076C24.4528 21.066 23.9906 21.9905 23.251 22.6928C22.5114 23.3952 21.5397 23.8322 20.5007 23.9299C18.6496 24.1826 16.9334 24.9977 15.607 26.2541C14.2807 27.5106 13.4149 29.1413 13.1384 30.9041C13.0572 31.6069 12.804 32.2817 12.3991 32.8742C10.8512 31.9982 9.46488 30.8857 8.29552 29.5812V29.5812ZM20.7723 35.1318C19.2414 35.1334 17.7178 34.9301 16.2463 34.5278C16.7496 33.6334 17.0769 32.6587 17.2118 31.6519C17.3175 30.6641 17.7775 29.7414 18.5141 29.0393C19.2507 28.3372 20.2188 27.8988 21.2551 27.7981C23.1035 27.5463 24.8168 26.7308 26.1385 25.4736C27.4602 24.2164 28.3193 22.5851 28.5873 20.8238C28.693 19.8361 29.1529 18.9133 29.8895 18.2112C30.6261 17.5092 31.5942 17.0708 32.6305 16.97C34.0215 16.7975 35.3474 16.3039 36.4927 15.532C37.1287 17.8298 37.2041 20.2359 36.713 22.5657C36.2219 24.8955 35.1774 27.0872 33.6596 28.9725C32.1419 30.8579 30.1912 32.3868 27.9573 33.442C25.7233 34.4972 23.2655 35.0507 20.7723 35.0599V35.1318Z" fill="#4B4B4B"/>
</svg>
