<svg width="18" height="16" viewBox="0 0 18 16" fill="none" xmlns="http://www.w3.org/2000/svg">
<path fill-rule="evenodd" clip-rule="evenodd" d="M8.92075 1.3335C6.26372 1.3335 4.11475 3.42016 4.11475 6.00016C4.11475 9.50016 8.92075 14.6668 8.92075 14.6668C8.92075 14.6668 13.7268 9.50016 13.7268 6.00016C13.7268 3.42016 11.5778 1.3335 8.92075 1.3335ZM5.48789 6.00016C5.48789 4.16016 7.02581 2.66683 8.92075 2.66683C10.8157 2.66683 12.3536 4.16016 12.3536 6.00016C12.3536 7.92016 10.3763 10.7935 8.92075 12.5868C7.49268 10.8068 5.48789 7.90016 5.48789 6.00016ZM7.20432 6.00016C7.20432 5.07969 7.97279 4.3335 8.92075 4.3335C9.53397 4.3335 10.1006 4.65116 10.4072 5.16683C10.7138 5.6825 10.7138 6.31783 10.4072 6.8335C10.1006 7.34916 9.53397 7.66683 8.92075 7.66683C7.97279 7.66683 7.20432 6.92064 7.20432 6.00016Z" fill="#F2726F"/>
</svg>
