<svg width="201.000000" height="317.000000" viewBox="0 0 201 317" fill="none" xmlns="http://www.w3.org/2000/svg" xmlns:xlink="http://www.w3.org/1999/xlink">
	<desc>
			Created with Pixso.
	</desc>
	<defs>
		<clipPath id="clip495_7528">
			<rect id="Stylize Circles" width="201.000000" height="317.000000" fill="white" fill-opacity="0"/>
		</clipPath>
	</defs>
	<rect id="Stylize Circles" width="201.000000" height="317.000000" fill="#FFFFFF" fill-opacity="0"/>
	<g clip-path="url(#clip495_7528)">
		<path id="Vector" d="M50 48.91C50 43.51 54.47 39.13 60 39.13C65.52 39.13 70 43.51 70 48.91C70 54.32 65.52 58.7 60 58.7C60 64.1 55.52 68.48 50 68.48C44.47 68.48 40 64.1 40 58.7C40 53.3 44.47 48.91 50 48.91ZM10 9.78C10 4.38 14.47 0 20 0C25.52 0 30 4.38 30 9.78C30 15.18 25.52 19.56 20 19.56C20 24.97 15.52 29.35 10 29.35C4.47 29.35 0 24.97 0 19.56C0 14.16 4.47 9.78 10 9.78ZM20 17.61C24.41 17.61 28 14.1 28 9.78C28 5.46 24.41 1.95 20 1.95C15.58 1.95 12 5.46 12 9.78C12 14.1 15.58 17.61 20 17.61ZM60 56.74C64.41 56.74 68 53.24 68 48.91C68 44.59 64.41 41.09 60 41.09C55.58 41.09 52 44.59 52 48.91C52 53.24 55.58 56.74 60 56.74Z" fill="#000000" fill-opacity="1.000000" fill-rule="evenodd"/>
		<path id="Vector" d="M132 48.91C132 43.51 136.47 39.13 142 39.13C147.52 39.13 152 43.51 152 48.91C152 54.32 147.52 58.7 142 58.7C142 64.1 137.52 68.48 132 68.48C126.47 68.48 122 64.1 122 58.7C122 53.3 126.47 48.91 132 48.91ZM92 9.78C92 4.38 96.47 0 102 0C107.52 0 112 4.38 112 9.78C112 15.18 107.52 19.56 102 19.56C102 24.97 97.52 29.35 92 29.35C86.47 29.35 82 24.97 82 19.56C82 14.16 86.47 9.78 92 9.78ZM102 17.61C106.41 17.61 110 14.1 110 9.78C110 5.46 106.41 1.95 102 1.95C97.58 1.95 94 5.46 94 9.78C94 14.1 97.58 17.61 102 17.61ZM142 56.74C146.41 56.74 150 53.24 150 48.91C150 44.59 146.41 41.09 142 41.09C137.58 41.09 134 44.59 134 48.91C134 53.24 137.58 56.74 142 56.74Z" fill="#000000" fill-opacity="1.000000" fill-rule="evenodd"/>
		<path id="Vector" d="M214 48.91C214 43.51 218.47 39.13 224 39.13C229.52 39.13 234 43.51 234 48.91C234 54.32 229.52 58.7 224 58.7C224 64.1 219.52 68.48 214 68.48C208.47 68.48 204 64.1 204 58.7C204 53.3 208.47 48.91 214 48.91ZM174 9.78C174 4.38 178.47 0 184 0C189.52 0 194 4.38 194 9.78C194 15.18 189.52 19.56 184 19.56C184 24.97 179.52 29.35 174 29.35C168.47 29.35 164 24.97 164 19.56C164 14.16 168.47 9.78 174 9.78ZM184 17.61C188.41 17.61 192 14.1 192 9.78C192 5.46 188.41 1.95 184 1.95C179.58 1.95 176 5.46 176 9.78C176 14.1 179.58 17.61 184 17.61ZM224 56.74C228.41 56.74 232 53.24 232 48.91C232 44.59 228.41 41.09 224 41.09C219.58 41.09 216 44.59 216 48.91C216 53.24 219.58 56.74 224 56.74Z" fill="#000000" fill-opacity="1.000000" fill-rule="evenodd"/>
		<path id="Vector" d="M296 48.91C296 43.51 300.47 39.13 306 39.13C311.52 39.13 316 43.51 316 48.91C316 54.32 311.52 58.7 306 58.7C306 64.1 301.52 68.48 296 68.48C290.47 68.48 286 64.1 286 58.7C286 53.3 290.47 48.91 296 48.91ZM256 9.78C256 4.38 260.47 0 266 0C271.52 0 276 4.38 276 9.78C276 15.18 271.52 19.56 266 19.56C266 24.97 261.52 29.35 256 29.35C250.47 29.35 246 24.97 246 19.56C246 14.16 250.47 9.78 256 9.78ZM266 17.61C270.41 17.61 274 14.1 274 9.78C274 5.46 270.41 1.95 266 1.95C261.58 1.95 258 5.46 258 9.78C258 14.1 261.58 17.61 266 17.61ZM306 56.74C310.41 56.74 314 53.24 314 48.91C314 44.59 310.41 41.09 306 41.09C301.58 41.09 298 44.59 298 48.91C298 53.24 301.58 56.74 306 56.74Z" fill="#000000" fill-opacity="1.000000" fill-rule="evenodd"/>
		<path id="Vector" d="M378 48.91C378 43.51 382.47 39.13 388 39.13C393.52 39.13 398 43.51 398 48.91C398 54.32 393.52 58.7 388 58.7C388 64.1 383.52 68.48 378 68.48C372.47 68.48 368 64.1 368 58.7C368 53.3 372.47 48.91 378 48.91ZM338 9.78C338 4.38 342.47 0 348 0C353.52 0 358 4.38 358 9.78C358 15.18 353.52 19.56 348 19.56C348 24.97 343.52 29.35 338 29.35C332.47 29.35 328 24.97 328 19.56C328 14.16 332.47 9.78 338 9.78ZM348 17.61C352.41 17.61 356 14.1 356 9.78C356 5.46 352.41 1.95 348 1.95C343.58 1.95 340 5.46 340 9.78C340 14.1 343.58 17.61 348 17.61ZM388 56.74C392.41 56.74 396 53.24 396 48.91C396 44.59 392.41 41.09 388 41.09C383.58 41.09 380 44.59 380 48.91C380 53.24 383.58 56.74 388 56.74Z" fill="#000000" fill-opacity="1.000000" fill-rule="evenodd"/>
		<path id="Vector" d="M460 48.91C460 43.51 464.47 39.13 470 39.13C475.52 39.13 480 43.51 480 48.91C480 54.32 475.52 58.7 470 58.7C470 64.1 465.52 68.48 460 68.48C454.47 68.48 450 64.1 450 58.7C450 53.3 454.47 48.91 460 48.91ZM420 9.78C420 4.38 424.47 0 430 0C435.52 0 440 4.38 440 9.78C440 15.18 435.52 19.56 430 19.56C430 24.97 425.52 29.35 420 29.35C414.47 29.35 410 24.97 410 19.56C410 14.16 414.47 9.78 420 9.78ZM430 17.61C434.41 17.61 438 14.1 438 9.78C438 5.46 434.41 1.95 430 1.95C425.58 1.95 422 5.46 422 9.78C422 14.1 425.58 17.61 430 17.61ZM470 56.74C474.41 56.74 478 53.24 478 48.91C478 44.59 474.41 41.09 470 41.09C465.58 41.09 462 44.59 462 48.91C462 53.24 465.58 56.74 470 56.74Z" fill="#000000" fill-opacity="1.000000" fill-rule="evenodd"/>
		<path id="Vector" d="M50 129.14C50 123.74 54.47 119.36 60 119.36C65.52 119.36 70 123.74 70 129.14C70 134.55 65.52 138.93 60 138.93C60 144.33 55.52 148.71 50 148.71C44.47 148.71 40 144.33 40 138.93C40 133.52 44.47 129.14 50 129.14ZM10 90.01C10 84.6 14.47 80.22 20 80.22C25.52 80.22 30 84.6 30 90.01C30 95.41 25.52 99.79 20 99.79C20 105.2 15.52 109.58 10 109.58C4.47 109.58 0 105.2 0 99.79C0 94.39 4.47 90.01 10 90.01ZM20 97.83C24.41 97.83 28 94.33 28 90.01C28 85.68 24.41 82.18 20 82.18C15.58 82.18 12 85.68 12 90.01C12 94.33 15.58 97.83 20 97.83ZM60 136.97C64.41 136.97 68 133.47 68 129.14C68 124.82 64.41 121.32 60 121.32C55.58 121.32 52 124.82 52 129.14C52 133.47 55.58 136.97 60 136.97Z" fill="#000000" fill-opacity="1.000000" fill-rule="evenodd"/>
		<path id="Vector" d="M132 129.14C132 123.74 136.47 119.36 142 119.36C147.52 119.36 152 123.74 152 129.14C152 134.55 147.52 138.93 142 138.93C142 144.33 137.52 148.71 132 148.71C126.47 148.71 122 144.33 122 138.93C122 133.52 126.47 129.14 132 129.14ZM92 90.01C92 84.6 96.47 80.22 102 80.22C107.52 80.22 112 84.6 112 90.01C112 95.41 107.52 99.79 102 99.79C102 105.2 97.52 109.58 92 109.58C86.47 109.58 82 105.2 82 99.79C82 94.39 86.47 90.01 92 90.01ZM102 97.83C106.41 97.83 110 94.33 110 90.01C110 85.68 106.41 82.18 102 82.18C97.58 82.18 94 85.68 94 90.01C94 94.33 97.58 97.83 102 97.83ZM142 136.97C146.41 136.97 150 133.47 150 129.14C150 124.82 146.41 121.32 142 121.32C137.58 121.32 134 124.82 134 129.14C134 133.47 137.58 136.97 142 136.97Z" fill="#000000" fill-opacity="1.000000" fill-rule="evenodd"/>
		<path id="Vector" d="M214 129.14C214 123.74 218.47 119.36 224 119.36C229.52 119.36 234 123.74 234 129.14C234 134.55 229.52 138.93 224 138.93C224 144.33 219.52 148.71 214 148.71C208.47 148.71 204 144.33 204 138.93C204 133.52 208.47 129.14 214 129.14ZM174 90.01C174 84.6 178.47 80.22 184 80.22C189.52 80.22 194 84.6 194 90.01C194 95.41 189.52 99.79 184 99.79C184 105.2 179.52 109.58 174 109.58C168.47 109.58 164 105.2 164 99.79C164 94.39 168.47 90.01 174 90.01ZM184 97.83C188.41 97.83 192 94.33 192 90.01C192 85.68 188.41 82.18 184 82.18C179.58 82.18 176 85.68 176 90.01C176 94.33 179.58 97.83 184 97.83ZM224 136.97C228.41 136.97 232 133.47 232 129.14C232 124.82 228.41 121.32 224 121.32C219.58 121.32 216 124.82 216 129.14C216 133.47 219.58 136.97 224 136.97Z" fill="#000000" fill-opacity="1.000000" fill-rule="evenodd"/>
		<path id="Vector" d="M296 129.14C296 123.74 300.47 119.36 306 119.36C311.52 119.36 316 123.74 316 129.14C316 134.55 311.52 138.93 306 138.93C306 144.33 301.52 148.71 296 148.71C290.47 148.71 286 144.33 286 138.93C286 133.52 290.47 129.14 296 129.14ZM256 90.01C256 84.6 260.47 80.22 266 80.22C271.52 80.22 276 84.6 276 90.01C276 95.41 271.52 99.79 266 99.79C266 105.2 261.52 109.58 256 109.58C250.47 109.58 246 105.2 246 99.79C246 94.39 250.47 90.01 256 90.01ZM266 97.83C270.41 97.83 274 94.33 274 90.01C274 85.68 270.41 82.18 266 82.18C261.58 82.18 258 85.68 258 90.01C258 94.33 261.58 97.83 266 97.83ZM306 136.97C310.41 136.97 314 133.47 314 129.14C314 124.82 310.41 121.32 306 121.32C301.58 121.32 298 124.82 298 129.14C298 133.47 301.58 136.97 306 136.97Z" fill="#000000" fill-opacity="1.000000" fill-rule="evenodd"/>
		<path id="Vector" d="M378 129.14C378 123.74 382.47 119.36 388 119.36C393.52 119.36 398 123.74 398 129.14C398 134.55 393.52 138.93 388 138.93C388 144.33 383.52 148.71 378 148.71C372.47 148.71 368 144.33 368 138.93C368 133.52 372.47 129.14 378 129.14ZM338 90.01C338 84.6 342.47 80.22 348 80.22C353.52 80.22 358 84.6 358 90.01C358 95.41 353.52 99.79 348 99.79C348 105.2 343.52 109.58 338 109.58C332.47 109.58 328 105.2 328 99.79C328 94.39 332.47 90.01 338 90.01ZM348 97.83C352.41 97.83 356 94.33 356 90.01C356 85.68 352.41 82.18 348 82.18C343.58 82.18 340 85.68 340 90.01C340 94.33 343.58 97.83 348 97.83ZM388 136.97C392.41 136.97 396 133.47 396 129.14C396 124.82 392.41 121.32 388 121.32C383.58 121.32 380 124.82 380 129.14C380 133.47 383.58 136.97 388 136.97Z" fill="#000000" fill-opacity="1.000000" fill-rule="evenodd"/>
		<path id="Vector" d="M460 129.14C460 123.74 464.47 119.36 470 119.36C475.52 119.36 480 123.74 480 129.14C480 134.55 475.52 138.93 470 138.93C470 144.33 465.52 148.71 460 148.71C454.47 148.71 450 144.33 450 138.93C450 133.52 454.47 129.14 460 129.14ZM420 90.01C420 84.6 424.47 80.22 430 80.22C435.52 80.22 440 84.6 440 90.01C440 95.41 435.52 99.79 430 99.79C430 105.2 425.52 109.58 420 109.58C414.47 109.58 410 105.2 410 99.79C410 94.39 414.47 90.01 420 90.01ZM430 97.83C434.41 97.83 438 94.33 438 90.01C438 85.68 434.41 82.18 430 82.18C425.58 82.18 422 85.68 422 90.01C422 94.33 425.58 97.83 430 97.83ZM470 136.97C474.41 136.97 478 133.47 478 129.14C478 124.82 474.41 121.32 470 121.32C465.58 121.32 462 124.82 462 129.14C462 133.47 465.58 136.97 470 136.97Z" fill="#000000" fill-opacity="1.000000" fill-rule="evenodd"/>
		<path id="Vector" d="M50 209.37C50 203.97 54.47 199.59 60 199.59C65.52 199.59 70 203.97 70 209.37C70 214.78 65.52 219.16 60 219.16C60 224.56 55.52 228.94 50 228.94C44.47 228.94 40 224.56 40 219.16C40 213.75 44.47 209.37 50 209.37ZM10 170.24C10 164.83 14.47 160.45 20 160.45C25.52 160.45 30 164.83 30 170.24C30 175.64 25.52 180.02 20 180.02C20 185.42 15.52 189.8 10 189.8C4.47 189.8 0 185.42 0 180.02C0 174.62 4.47 170.24 10 170.24ZM20 178.06C24.41 178.06 28 174.56 28 170.24C28 165.91 24.41 162.41 20 162.41C15.58 162.41 12 165.91 12 170.24C12 174.56 15.58 178.06 20 178.06ZM60 217.2C64.41 217.2 68 213.69 68 209.37C68 205.05 64.41 201.54 60 201.54C55.58 201.54 52 205.05 52 209.37C52 213.69 55.58 217.2 60 217.2Z" fill="#000000" fill-opacity="1.000000" fill-rule="evenodd"/>
		<path id="Vector" d="M132 209.37C132 203.97 136.47 199.59 142 199.59C147.52 199.59 152 203.97 152 209.37C152 214.78 147.52 219.16 142 219.16C142 224.56 137.52 228.94 132 228.94C126.47 228.94 122 224.56 122 219.16C122 213.75 126.47 209.37 132 209.37ZM92 170.24C92 164.83 96.47 160.45 102 160.45C107.52 160.45 112 164.83 112 170.24C112 175.64 107.52 180.02 102 180.02C102 185.42 97.52 189.8 92 189.8C86.47 189.8 82 185.42 82 180.02C82 174.62 86.47 170.24 92 170.24ZM102 178.06C106.41 178.06 110 174.56 110 170.24C110 165.91 106.41 162.41 102 162.41C97.58 162.41 94 165.91 94 170.24C94 174.56 97.58 178.06 102 178.06ZM142 217.2C146.41 217.2 150 213.69 150 209.37C150 205.05 146.41 201.54 142 201.54C137.58 201.54 134 205.05 134 209.37C134 213.69 137.58 217.2 142 217.2Z" fill="#000000" fill-opacity="1.000000" fill-rule="evenodd"/>
		<path id="Vector" d="M214 209.37C214 203.97 218.47 199.59 224 199.59C229.52 199.59 234 203.97 234 209.37C234 214.78 229.52 219.16 224 219.16C224 224.56 219.52 228.94 214 228.94C208.47 228.94 204 224.56 204 219.16C204 213.75 208.47 209.37 214 209.37ZM174 170.24C174 164.83 178.47 160.45 184 160.45C189.52 160.45 194 164.83 194 170.24C194 175.64 189.52 180.02 184 180.02C184 185.42 179.52 189.8 174 189.8C168.47 189.8 164 185.42 164 180.02C164 174.62 168.47 170.24 174 170.24ZM184 178.06C188.41 178.06 192 174.56 192 170.24C192 165.91 188.41 162.41 184 162.41C179.58 162.41 176 165.91 176 170.24C176 174.56 179.58 178.06 184 178.06ZM224 217.2C228.41 217.2 232 213.69 232 209.37C232 205.05 228.41 201.54 224 201.54C219.58 201.54 216 205.05 216 209.37C216 213.69 219.58 217.2 224 217.2Z" fill="#000000" fill-opacity="1.000000" fill-rule="evenodd"/>
		<path id="Vector" d="M296 209.37C296 203.97 300.47 199.59 306 199.59C311.52 199.59 316 203.97 316 209.37C316 214.78 311.52 219.16 306 219.16C306 224.56 301.52 228.94 296 228.94C290.47 228.94 286 224.56 286 219.16C286 213.75 290.47 209.37 296 209.37ZM256 170.24C256 164.83 260.47 160.45 266 160.45C271.52 160.45 276 164.83 276 170.24C276 175.64 271.52 180.02 266 180.02C266 185.42 261.52 189.8 256 189.8C250.47 189.8 246 185.42 246 180.02C246 174.62 250.47 170.24 256 170.24ZM266 178.06C270.41 178.06 274 174.56 274 170.24C274 165.91 270.41 162.41 266 162.41C261.58 162.41 258 165.91 258 170.24C258 174.56 261.58 178.06 266 178.06ZM306 217.2C310.41 217.2 314 213.69 314 209.37C314 205.05 310.41 201.54 306 201.54C301.58 201.54 298 205.05 298 209.37C298 213.69 301.58 217.2 306 217.2Z" fill="#000000" fill-opacity="1.000000" fill-rule="evenodd"/>
		<path id="Vector" d="M378 209.37C378 203.97 382.47 199.59 388 199.59C393.52 199.59 398 203.97 398 209.37C398 214.78 393.52 219.16 388 219.16C388 224.56 383.52 228.94 378 228.94C372.47 228.94 368 224.56 368 219.16C368 213.75 372.47 209.37 378 209.37ZM338 170.24C338 164.83 342.47 160.45 348 160.45C353.52 160.45 358 164.83 358 170.24C358 175.64 353.52 180.02 348 180.02C348 185.42 343.52 189.8 338 189.8C332.47 189.8 328 185.42 328 180.02C328 174.62 332.47 170.24 338 170.24ZM348 178.06C352.41 178.06 356 174.56 356 170.24C356 165.91 352.41 162.41 348 162.41C343.58 162.41 340 165.91 340 170.24C340 174.56 343.58 178.06 348 178.06ZM388 217.2C392.41 217.2 396 213.69 396 209.37C396 205.05 392.41 201.54 388 201.54C383.58 201.54 380 205.05 380 209.37C380 213.69 383.58 217.2 388 217.2Z" fill="#000000" fill-opacity="1.000000" fill-rule="evenodd"/>
		<path id="Vector" d="M460 209.37C460 203.97 464.47 199.59 470 199.59C475.52 199.59 480 203.97 480 209.37C480 214.78 475.52 219.16 470 219.16C470 224.56 465.52 228.94 460 228.94C454.47 228.94 450 224.56 450 219.16C450 213.75 454.47 209.37 460 209.37ZM420 170.24C420 164.83 424.47 160.45 430 160.45C435.52 160.45 440 164.83 440 170.24C440 175.64 435.52 180.02 430 180.02C430 185.42 425.52 189.8 420 189.8C414.47 189.8 410 185.42 410 180.02C410 174.62 414.47 170.24 420 170.24ZM430 178.06C434.41 178.06 438 174.56 438 170.24C438 165.91 434.41 162.41 430 162.41C425.58 162.41 422 165.91 422 170.24C422 174.56 425.58 178.06 430 178.06ZM470 217.2C474.41 217.2 478 213.69 478 209.37C478 205.05 474.41 201.54 470 201.54C465.58 201.54 462 205.05 462 209.37C462 213.69 465.58 217.2 470 217.2Z" fill="#000000" fill-opacity="1.000000" fill-rule="evenodd"/>
		<path id="Vector" d="M50 289.6C50 284.2 54.47 279.82 60 279.82C65.52 279.82 70 284.2 70 289.6C70 295 65.52 299.38 60 299.38C60 304.79 55.52 309.17 50 309.17C44.47 309.17 40 304.79 40 299.38C40 293.98 44.47 289.6 50 289.6ZM10 250.46C10 245.06 14.47 240.68 20 240.68C25.52 240.68 30 245.06 30 250.46C30 255.87 25.52 260.25 20 260.25C20 265.65 15.52 270.03 10 270.03C4.47 270.03 0 265.65 0 260.25C0 254.84 4.47 250.46 10 250.46ZM20 258.29C24.41 258.29 28 254.79 28 250.46C28 246.14 24.41 242.64 20 242.64C15.58 242.64 12 246.14 12 250.46C12 254.79 15.58 258.29 20 258.29ZM60 297.43C64.41 297.43 68 293.92 68 289.6C68 285.28 64.41 281.77 60 281.77C55.58 281.77 52 285.28 52 289.6C52 293.92 55.58 297.43 60 297.43Z" fill="#000000" fill-opacity="1.000000" fill-rule="evenodd"/>
		<path id="Vector" d="M132 289.6C132 284.2 136.47 279.82 142 279.82C147.52 279.82 152 284.2 152 289.6C152 295 147.52 299.38 142 299.38C142 304.79 137.52 309.17 132 309.17C126.47 309.17 122 304.79 122 299.38C122 293.98 126.47 289.6 132 289.6ZM92 250.46C92 245.06 96.47 240.68 102 240.68C107.52 240.68 112 245.06 112 250.46C112 255.87 107.52 260.25 102 260.25C102 265.65 97.52 270.03 92 270.03C86.47 270.03 82 265.65 82 260.25C82 254.84 86.47 250.46 92 250.46ZM102 258.29C106.41 258.29 110 254.79 110 250.46C110 246.14 106.41 242.64 102 242.64C97.58 242.64 94 246.14 94 250.46C94 254.79 97.58 258.29 102 258.29ZM142 297.43C146.41 297.43 150 293.92 150 289.6C150 285.28 146.41 281.77 142 281.77C137.58 281.77 134 285.28 134 289.6C134 293.92 137.58 297.43 142 297.43Z" fill="#000000" fill-opacity="1.000000" fill-rule="evenodd"/>
		<path id="Vector" d="M214 289.6C214 284.2 218.47 279.82 224 279.82C229.52 279.82 234 284.2 234 289.6C234 295 229.52 299.38 224 299.38C224 304.79 219.52 309.17 214 309.17C208.47 309.17 204 304.79 204 299.38C204 293.98 208.47 289.6 214 289.6ZM174 250.46C174 245.06 178.47 240.68 184 240.68C189.52 240.68 194 245.06 194 250.46C194 255.87 189.52 260.25 184 260.25C184 265.65 179.52 270.03 174 270.03C168.47 270.03 164 265.65 164 260.25C164 254.84 168.47 250.46 174 250.46ZM184 258.29C188.41 258.29 192 254.79 192 250.46C192 246.14 188.41 242.64 184 242.64C179.58 242.64 176 246.14 176 250.46C176 254.79 179.58 258.29 184 258.29ZM224 297.43C228.41 297.43 232 293.92 232 289.6C232 285.28 228.41 281.77 224 281.77C219.58 281.77 216 285.28 216 289.6C216 293.92 219.58 297.43 224 297.43Z" fill="#000000" fill-opacity="1.000000" fill-rule="evenodd"/>
		<path id="Vector" d="M296 289.6C296 284.2 300.47 279.82 306 279.82C311.52 279.82 316 284.2 316 289.6C316 295 311.52 299.38 306 299.38C306 304.79 301.52 309.17 296 309.17C290.47 309.17 286 304.79 286 299.38C286 293.98 290.47 289.6 296 289.6ZM256 250.46C256 245.06 260.47 240.68 266 240.68C271.52 240.68 276 245.06 276 250.46C276 255.87 271.52 260.25 266 260.25C266 265.65 261.52 270.03 256 270.03C250.47 270.03 246 265.65 246 260.25C246 254.84 250.47 250.46 256 250.46ZM266 258.29C270.41 258.29 274 254.79 274 250.46C274 246.14 270.41 242.64 266 242.64C261.58 242.64 258 246.14 258 250.46C258 254.79 261.58 258.29 266 258.29ZM306 297.43C310.41 297.43 314 293.92 314 289.6C314 285.28 310.41 281.77 306 281.77C301.58 281.77 298 285.28 298 289.6C298 293.92 301.58 297.43 306 297.43Z" fill="#000000" fill-opacity="1.000000" fill-rule="evenodd"/>
		<path id="Vector" d="M378 289.6C378 284.2 382.47 279.82 388 279.82C393.52 279.82 398 284.2 398 289.6C398 295 393.52 299.38 388 299.38C388 304.79 383.52 309.17 378 309.17C372.47 309.17 368 304.79 368 299.38C368 293.98 372.47 289.6 378 289.6ZM338 250.46C338 245.06 342.47 240.68 348 240.68C353.52 240.68 358 245.06 358 250.46C358 255.87 353.52 260.25 348 260.25C348 265.65 343.52 270.03 338 270.03C332.47 270.03 328 265.65 328 260.25C328 254.84 332.47 250.46 338 250.46ZM348 258.29C352.41 258.29 356 254.79 356 250.46C356 246.14 352.41 242.64 348 242.64C343.58 242.64 340 246.14 340 250.46C340 254.79 343.58 258.29 348 258.29ZM388 297.43C392.41 297.43 396 293.92 396 289.6C396 285.28 392.41 281.77 388 281.77C383.58 281.77 380 285.28 380 289.6C380 293.92 383.58 297.43 388 297.43Z" fill="#000000" fill-opacity="1.000000" fill-rule="evenodd"/>
		<path id="Vector" d="M460 289.6C460 284.2 464.47 279.82 470 279.82C475.52 279.82 480 284.2 480 289.6C480 295 475.52 299.38 470 299.38C470 304.79 465.52 309.17 460 309.17C454.47 309.17 450 304.79 450 299.38C450 293.98 454.47 289.6 460 289.6ZM420 250.46C420 245.06 424.47 240.68 430 240.68C435.52 240.68 440 245.06 440 250.46C440 255.87 435.52 260.25 430 260.25C430 265.65 425.52 270.03 420 270.03C414.47 270.03 410 265.65 410 260.25C410 254.84 414.47 250.46 420 250.46ZM430 258.29C434.41 258.29 438 254.79 438 250.46C438 246.14 434.41 242.64 430 242.64C425.58 242.64 422 246.14 422 250.46C422 254.79 425.58 258.29 430 258.29ZM470 297.43C474.41 297.43 478 293.92 478 289.6C478 285.28 474.41 281.77 470 281.77C465.58 281.77 462 285.28 462 289.6C462 293.92 465.58 297.43 470 297.43Z" fill="#000000" fill-opacity="1.000000" fill-rule="evenodd"/>
		<path id="Vector" d="M542 48.91C542 43.51 546.47 39.13 552 39.13C557.52 39.13 562 43.51 562 48.91C562 54.32 557.52 58.7 552 58.7C552 64.1 547.52 68.48 542 68.48C536.47 68.48 532 64.1 532 58.7C532 53.3 536.47 48.91 542 48.91ZM502 9.78C502 4.38 506.47 0 512 0C517.52 0 522 4.38 522 9.78C522 15.18 517.52 19.56 512 19.56C512 24.97 507.52 29.35 502 29.35C496.47 29.35 492 24.97 492 19.56C492 14.16 496.47 9.78 502 9.78ZM512 17.61C516.41 17.61 520 14.1 520 9.78C520 5.46 516.41 1.95 512 1.95C507.58 1.95 504 5.46 504 9.78C504 14.1 507.58 17.61 512 17.61ZM552 56.74C556.41 56.74 560 53.24 560 48.91C560 44.59 556.41 41.09 552 41.09C547.58 41.09 544 44.59 544 48.91C544 53.24 547.58 56.74 552 56.74Z" fill="#000000" fill-opacity="1.000000" fill-rule="evenodd"/>
		<path id="Vector" d="M624 48.91C624 43.51 628.47 39.13 634 39.13C639.52 39.13 644 43.51 644 48.91C644 54.32 639.52 58.7 634 58.7C634 64.1 629.52 68.48 624 68.48C618.47 68.48 614 64.1 614 58.7C614 53.3 618.47 48.91 624 48.91ZM584 9.78C584 4.38 588.47 0 594 0C599.52 0 604 4.38 604 9.78C604 15.18 599.52 19.56 594 19.56C594 24.97 589.52 29.35 584 29.35C578.47 29.35 574 24.97 574 19.56C574 14.16 578.47 9.78 584 9.78ZM594 17.61C598.41 17.61 602 14.1 602 9.78C602 5.46 598.41 1.95 594 1.95C589.58 1.95 586 5.46 586 9.78C586 14.1 589.58 17.61 594 17.61ZM634 56.74C638.41 56.74 642 53.24 642 48.91C642 44.59 638.41 41.09 634 41.09C629.58 41.09 626 44.59 626 48.91C626 53.24 629.58 56.74 634 56.74Z" fill="#000000" fill-opacity="1.000000" fill-rule="evenodd"/>
		<path id="Vector" d="M706 48.91C706 43.51 710.47 39.13 716 39.13C721.52 39.13 726 43.51 726 48.91C726 54.32 721.52 58.7 716 58.7C716 64.1 711.52 68.48 706 68.48C700.47 68.48 696 64.1 696 58.7C696 53.3 700.47 48.91 706 48.91ZM666 9.78C666 4.38 670.47 0 676 0C681.52 0 686 4.38 686 9.78C686 15.18 681.52 19.56 676 19.56C676 24.97 671.52 29.35 666 29.35C660.47 29.35 656 24.97 656 19.56C656 14.16 660.47 9.78 666 9.78ZM676 17.61C680.41 17.61 684 14.1 684 9.78C684 5.46 680.41 1.95 676 1.95C671.58 1.95 668 5.46 668 9.78C668 14.1 671.58 17.61 676 17.61ZM716 56.74C720.41 56.74 724 53.24 724 48.91C724 44.59 720.41 41.09 716 41.09C711.58 41.09 708 44.59 708 48.91C708 53.24 711.58 56.74 716 56.74Z" fill="#000000" fill-opacity="1.000000" fill-rule="evenodd"/>
		<path id="Vector" d="M788 48.91C788 43.51 792.47 39.13 798 39.13C803.52 39.13 808 43.51 808 48.91C808 54.32 803.52 58.7 798 58.7C798 64.1 793.52 68.48 788 68.48C782.47 68.48 778 64.1 778 58.7C778 53.3 782.47 48.91 788 48.91ZM748 9.78C748 4.38 752.47 0 758 0C763.52 0 768 4.38 768 9.78C768 15.18 763.52 19.56 758 19.56C758 24.97 753.52 29.35 748 29.35C742.47 29.35 738 24.97 738 19.56C738 14.16 742.47 9.78 748 9.78ZM758 17.61C762.41 17.61 766 14.1 766 9.78C766 5.46 762.41 1.95 758 1.95C753.58 1.95 750 5.46 750 9.78C750 14.1 753.58 17.61 758 17.61ZM798 56.74C802.41 56.74 806 53.24 806 48.91C806 44.59 802.41 41.09 798 41.09C793.58 41.09 790 44.59 790 48.91C790 53.24 793.58 56.74 798 56.74Z" fill="#000000" fill-opacity="1.000000" fill-rule="evenodd"/>
		<path id="Vector" d="M870 48.91C870 43.51 874.47 39.13 880 39.13C885.52 39.13 890 43.51 890 48.91C890 54.32 885.52 58.7 880 58.7C880 64.1 875.52 68.48 870 68.48C864.47 68.48 860 64.1 860 58.7C860 53.3 864.47 48.91 870 48.91ZM830 9.78C830 4.38 834.47 0 840 0C845.52 0 850 4.38 850 9.78C850 15.18 845.52 19.56 840 19.56C840 24.97 835.52 29.35 830 29.35C824.47 29.35 820 24.97 820 19.56C820 14.16 824.47 9.78 830 9.78ZM840 17.61C844.41 17.61 848 14.1 848 9.78C848 5.46 844.41 1.95 840 1.95C835.58 1.95 832 5.46 832 9.78C832 14.1 835.58 17.61 840 17.61ZM880 56.74C884.41 56.74 888 53.24 888 48.91C888 44.59 884.41 41.09 880 41.09C875.58 41.09 872 44.59 872 48.91C872 53.24 875.58 56.74 880 56.74Z" fill="#000000" fill-opacity="1.000000" fill-rule="evenodd"/>
		<path id="Vector" d="M952 48.91C952 43.51 956.47 39.13 962 39.13C967.52 39.13 972 43.51 972 48.91C972 54.32 967.52 58.7 962 58.7C962 64.1 957.52 68.48 952 68.48C946.47 68.48 942 64.1 942 58.7C942 53.3 946.47 48.91 952 48.91ZM912 9.78C912 4.38 916.47 0 922 0C927.52 0 932 4.38 932 9.78C932 15.18 927.52 19.56 922 19.56C922 24.97 917.52 29.35 912 29.35C906.47 29.35 902 24.97 902 19.56C902 14.16 906.47 9.78 912 9.78ZM922 17.61C926.41 17.61 930 14.1 930 9.78C930 5.46 926.41 1.95 922 1.95C917.58 1.95 914 5.46 914 9.78C914 14.1 917.58 17.61 922 17.61ZM962 56.74C966.41 56.74 970 53.24 970 48.91C970 44.59 966.41 41.09 962 41.09C957.58 41.09 954 44.59 954 48.91C954 53.24 957.58 56.74 962 56.74Z" fill="#000000" fill-opacity="1.000000" fill-rule="evenodd"/>
		<path id="Vector" d="M542 129.14C542 123.74 546.47 119.36 552 119.36C557.52 119.36 562 123.74 562 129.14C562 134.55 557.52 138.93 552 138.93C552 144.33 547.52 148.71 542 148.71C536.47 148.71 532 144.33 532 138.93C532 133.52 536.47 129.14 542 129.14ZM502 90.01C502 84.6 506.47 80.22 512 80.22C517.52 80.22 522 84.6 522 90.01C522 95.41 517.52 99.79 512 99.79C512 105.2 507.52 109.58 502 109.58C496.47 109.58 492 105.2 492 99.79C492 94.39 496.47 90.01 502 90.01ZM512 97.83C516.41 97.83 520 94.33 520 90.01C520 85.68 516.41 82.18 512 82.18C507.58 82.18 504 85.68 504 90.01C504 94.33 507.58 97.83 512 97.83ZM552 136.97C556.41 136.97 560 133.47 560 129.14C560 124.82 556.41 121.32 552 121.32C547.58 121.32 544 124.82 544 129.14C544 133.47 547.58 136.97 552 136.97Z" fill="#000000" fill-opacity="1.000000" fill-rule="evenodd"/>
		<path id="Vector" d="M624 129.14C624 123.74 628.47 119.36 634 119.36C639.52 119.36 644 123.74 644 129.14C644 134.55 639.52 138.93 634 138.93C634 144.33 629.52 148.71 624 148.71C618.47 148.71 614 144.33 614 138.93C614 133.52 618.47 129.14 624 129.14ZM584 90.01C584 84.6 588.47 80.22 594 80.22C599.52 80.22 604 84.6 604 90.01C604 95.41 599.52 99.79 594 99.79C594 105.2 589.52 109.58 584 109.58C578.47 109.58 574 105.2 574 99.79C574 94.39 578.47 90.01 584 90.01ZM594 97.83C598.41 97.83 602 94.33 602 90.01C602 85.68 598.41 82.18 594 82.18C589.58 82.18 586 85.68 586 90.01C586 94.33 589.58 97.83 594 97.83ZM634 136.97C638.41 136.97 642 133.47 642 129.14C642 124.82 638.41 121.32 634 121.32C629.58 121.32 626 124.82 626 129.14C626 133.47 629.58 136.97 634 136.97Z" fill="#000000" fill-opacity="1.000000" fill-rule="evenodd"/>
		<path id="Vector" d="M706 129.14C706 123.74 710.47 119.36 716 119.36C721.52 119.36 726 123.74 726 129.14C726 134.55 721.52 138.93 716 138.93C716 144.33 711.52 148.71 706 148.71C700.47 148.71 696 144.33 696 138.93C696 133.52 700.47 129.14 706 129.14ZM666 90.01C666 84.6 670.47 80.22 676 80.22C681.52 80.22 686 84.6 686 90.01C686 95.41 681.52 99.79 676 99.79C676 105.2 671.52 109.58 666 109.58C660.47 109.58 656 105.2 656 99.79C656 94.39 660.47 90.01 666 90.01ZM676 97.83C680.41 97.83 684 94.33 684 90.01C684 85.68 680.41 82.18 676 82.18C671.58 82.18 668 85.68 668 90.01C668 94.33 671.58 97.83 676 97.83ZM716 136.97C720.41 136.97 724 133.47 724 129.14C724 124.82 720.41 121.32 716 121.32C711.58 121.32 708 124.82 708 129.14C708 133.47 711.58 136.97 716 136.97Z" fill="#000000" fill-opacity="1.000000" fill-rule="evenodd"/>
		<path id="Vector" d="M788 129.14C788 123.74 792.47 119.36 798 119.36C803.52 119.36 808 123.74 808 129.14C808 134.55 803.52 138.93 798 138.93C798 144.33 793.52 148.71 788 148.71C782.47 148.71 778 144.33 778 138.93C778 133.52 782.47 129.14 788 129.14ZM748 90.01C748 84.6 752.47 80.22 758 80.22C763.52 80.22 768 84.6 768 90.01C768 95.41 763.52 99.79 758 99.79C758 105.2 753.52 109.58 748 109.58C742.47 109.58 738 105.2 738 99.79C738 94.39 742.47 90.01 748 90.01ZM758 97.83C762.41 97.83 766 94.33 766 90.01C766 85.68 762.41 82.18 758 82.18C753.58 82.18 750 85.68 750 90.01C750 94.33 753.58 97.83 758 97.83ZM798 136.97C802.41 136.97 806 133.47 806 129.14C806 124.82 802.41 121.32 798 121.32C793.58 121.32 790 124.82 790 129.14C790 133.47 793.58 136.97 798 136.97Z" fill="#000000" fill-opacity="1.000000" fill-rule="evenodd"/>
		<path id="Vector" d="M870 129.14C870 123.74 874.47 119.36 880 119.36C885.52 119.36 890 123.74 890 129.14C890 134.55 885.52 138.93 880 138.93C880 144.33 875.52 148.71 870 148.71C864.47 148.71 860 144.33 860 138.93C860 133.52 864.47 129.14 870 129.14ZM830 90.01C830 84.6 834.47 80.22 840 80.22C845.52 80.22 850 84.6 850 90.01C850 95.41 845.52 99.79 840 99.79C840 105.2 835.52 109.58 830 109.58C824.47 109.58 820 105.2 820 99.79C820 94.39 824.47 90.01 830 90.01ZM840 97.83C844.41 97.83 848 94.33 848 90.01C848 85.68 844.41 82.18 840 82.18C835.58 82.18 832 85.68 832 90.01C832 94.33 835.58 97.83 840 97.83ZM880 136.97C884.41 136.97 888 133.47 888 129.14C888 124.82 884.41 121.32 880 121.32C875.58 121.32 872 124.82 872 129.14C872 133.47 875.58 136.97 880 136.97Z" fill="#000000" fill-opacity="1.000000" fill-rule="evenodd"/>
		<path id="Vector" d="M952 129.14C952 123.74 956.47 119.36 962 119.36C967.52 119.36 972 123.74 972 129.14C972 134.55 967.52 138.93 962 138.93C962 144.33 957.52 148.71 952 148.71C946.47 148.71 942 144.33 942 138.93C942 133.52 946.47 129.14 952 129.14ZM912 90.01C912 84.6 916.47 80.22 922 80.22C927.52 80.22 932 84.6 932 90.01C932 95.41 927.52 99.79 922 99.79C922 105.2 917.52 109.58 912 109.58C906.47 109.58 902 105.2 902 99.79C902 94.39 906.47 90.01 912 90.01ZM922 97.83C926.41 97.83 930 94.33 930 90.01C930 85.68 926.41 82.18 922 82.18C917.58 82.18 914 85.68 914 90.01C914 94.33 917.58 97.83 922 97.83ZM962 136.97C966.41 136.97 970 133.47 970 129.14C970 124.82 966.41 121.32 962 121.32C957.58 121.32 954 124.82 954 129.14C954 133.47 957.58 136.97 962 136.97Z" fill="#000000" fill-opacity="1.000000" fill-rule="evenodd"/>
		<path id="Vector" d="M542 209.37C542 203.97 546.47 199.59 552 199.59C557.52 199.59 562 203.97 562 209.37C562 214.78 557.52 219.16 552 219.16C552 224.56 547.52 228.94 542 228.94C536.47 228.94 532 224.56 532 219.16C532 213.75 536.47 209.37 542 209.37ZM502 170.24C502 164.83 506.47 160.45 512 160.45C517.52 160.45 522 164.83 522 170.24C522 175.64 517.52 180.02 512 180.02C512 185.42 507.52 189.8 502 189.8C496.47 189.8 492 185.42 492 180.02C492 174.62 496.47 170.24 502 170.24ZM512 178.06C516.41 178.06 520 174.56 520 170.24C520 165.91 516.41 162.41 512 162.41C507.58 162.41 504 165.91 504 170.24C504 174.56 507.58 178.06 512 178.06ZM552 217.2C556.41 217.2 560 213.69 560 209.37C560 205.05 556.41 201.54 552 201.54C547.58 201.54 544 205.05 544 209.37C544 213.69 547.58 217.2 552 217.2Z" fill="#000000" fill-opacity="1.000000" fill-rule="evenodd"/>
		<path id="Vector" d="M624 209.37C624 203.97 628.47 199.59 634 199.59C639.52 199.59 644 203.97 644 209.37C644 214.78 639.52 219.16 634 219.16C634 224.56 629.52 228.94 624 228.94C618.47 228.94 614 224.56 614 219.16C614 213.75 618.47 209.37 624 209.37ZM584 170.24C584 164.83 588.47 160.45 594 160.45C599.52 160.45 604 164.83 604 170.24C604 175.64 599.52 180.02 594 180.02C594 185.42 589.52 189.8 584 189.8C578.47 189.8 574 185.42 574 180.02C574 174.62 578.47 170.24 584 170.24ZM594 178.06C598.41 178.06 602 174.56 602 170.24C602 165.91 598.41 162.41 594 162.41C589.58 162.41 586 165.91 586 170.24C586 174.56 589.58 178.06 594 178.06ZM634 217.2C638.41 217.2 642 213.69 642 209.37C642 205.05 638.41 201.54 634 201.54C629.58 201.54 626 205.05 626 209.37C626 213.69 629.58 217.2 634 217.2Z" fill="#000000" fill-opacity="1.000000" fill-rule="evenodd"/>
		<path id="Vector" d="M706 209.37C706 203.97 710.47 199.59 716 199.59C721.52 199.59 726 203.97 726 209.37C726 214.78 721.52 219.16 716 219.16C716 224.56 711.52 228.94 706 228.94C700.47 228.94 696 224.56 696 219.16C696 213.75 700.47 209.37 706 209.37ZM666 170.24C666 164.83 670.47 160.45 676 160.45C681.52 160.45 686 164.83 686 170.24C686 175.64 681.52 180.02 676 180.02C676 185.42 671.52 189.8 666 189.8C660.47 189.8 656 185.42 656 180.02C656 174.62 660.47 170.24 666 170.24ZM676 178.06C680.41 178.06 684 174.56 684 170.24C684 165.91 680.41 162.41 676 162.41C671.58 162.41 668 165.91 668 170.24C668 174.56 671.58 178.06 676 178.06ZM716 217.2C720.41 217.2 724 213.69 724 209.37C724 205.05 720.41 201.54 716 201.54C711.58 201.54 708 205.05 708 209.37C708 213.69 711.58 217.2 716 217.2Z" fill="#000000" fill-opacity="1.000000" fill-rule="evenodd"/>
		<path id="Vector" d="M788 209.37C788 203.97 792.47 199.59 798 199.59C803.52 199.59 808 203.97 808 209.37C808 214.78 803.52 219.16 798 219.16C798 224.56 793.52 228.94 788 228.94C782.47 228.94 778 224.56 778 219.16C778 213.75 782.47 209.37 788 209.37ZM748 170.24C748 164.83 752.47 160.45 758 160.45C763.52 160.45 768 164.83 768 170.24C768 175.64 763.52 180.02 758 180.02C758 185.42 753.52 189.8 748 189.8C742.47 189.8 738 185.42 738 180.02C738 174.62 742.47 170.24 748 170.24ZM758 178.06C762.41 178.06 766 174.56 766 170.24C766 165.91 762.41 162.41 758 162.41C753.58 162.41 750 165.91 750 170.24C750 174.56 753.58 178.06 758 178.06ZM798 217.2C802.41 217.2 806 213.69 806 209.37C806 205.05 802.41 201.54 798 201.54C793.58 201.54 790 205.05 790 209.37C790 213.69 793.58 217.2 798 217.2Z" fill="#000000" fill-opacity="1.000000" fill-rule="evenodd"/>
		<path id="Vector" d="M870 209.37C870 203.97 874.47 199.59 880 199.59C885.52 199.59 890 203.97 890 209.37C890 214.78 885.52 219.16 880 219.16C880 224.56 875.52 228.94 870 228.94C864.47 228.94 860 224.56 860 219.16C860 213.75 864.47 209.37 870 209.37ZM830 170.24C830 164.83 834.47 160.45 840 160.45C845.52 160.45 850 164.83 850 170.24C850 175.64 845.52 180.02 840 180.02C840 185.42 835.52 189.8 830 189.8C824.47 189.8 820 185.42 820 180.02C820 174.62 824.47 170.24 830 170.24ZM840 178.06C844.41 178.06 848 174.56 848 170.24C848 165.91 844.41 162.41 840 162.41C835.58 162.41 832 165.91 832 170.24C832 174.56 835.58 178.06 840 178.06ZM880 217.2C884.41 217.2 888 213.69 888 209.37C888 205.05 884.41 201.54 880 201.54C875.58 201.54 872 205.05 872 209.37C872 213.69 875.58 217.2 880 217.2Z" fill="#000000" fill-opacity="1.000000" fill-rule="evenodd"/>
		<path id="Vector" d="M952 209.37C952 203.97 956.47 199.59 962 199.59C967.52 199.59 972 203.97 972 209.37C972 214.78 967.52 219.16 962 219.16C962 224.56 957.52 228.94 952 228.94C946.47 228.94 942 224.56 942 219.16C942 213.75 946.47 209.37 952 209.37ZM912 170.24C912 164.83 916.47 160.45 922 160.45C927.52 160.45 932 164.83 932 170.24C932 175.64 927.52 180.02 922 180.02C922 185.42 917.52 189.8 912 189.8C906.47 189.8 902 185.42 902 180.02C902 174.62 906.47 170.24 912 170.24ZM922 178.06C926.41 178.06 930 174.56 930 170.24C930 165.91 926.41 162.41 922 162.41C917.58 162.41 914 165.91 914 170.24C914 174.56 917.58 178.06 922 178.06ZM962 217.2C966.41 217.2 970 213.69 970 209.37C970 205.05 966.41 201.54 962 201.54C957.58 201.54 954 205.05 954 209.37C954 213.69 957.58 217.2 962 217.2Z" fill="#000000" fill-opacity="1.000000" fill-rule="evenodd"/>
		<path id="Vector" d="M542 289.6C542 284.2 546.47 279.82 552 279.82C557.52 279.82 562 284.2 562 289.6C562 295 557.52 299.38 552 299.38C552 304.79 547.52 309.17 542 309.17C536.47 309.17 532 304.79 532 299.38C532 293.98 536.47 289.6 542 289.6ZM502 250.46C502 245.06 506.47 240.68 512 240.68C517.52 240.68 522 245.06 522 250.46C522 255.87 517.52 260.25 512 260.25C512 265.65 507.52 270.03 502 270.03C496.47 270.03 492 265.65 492 260.25C492 254.84 496.47 250.46 502 250.46ZM512 258.29C516.41 258.29 520 254.79 520 250.46C520 246.14 516.41 242.64 512 242.64C507.58 242.64 504 246.14 504 250.46C504 254.79 507.58 258.29 512 258.29ZM552 297.43C556.41 297.43 560 293.92 560 289.6C560 285.28 556.41 281.77 552 281.77C547.58 281.77 544 285.28 544 289.6C544 293.92 547.58 297.43 552 297.43Z" fill="#000000" fill-opacity="1.000000" fill-rule="evenodd"/>
		<path id="Vector" d="M624 289.6C624 284.2 628.47 279.82 634 279.82C639.52 279.82 644 284.2 644 289.6C644 295 639.52 299.38 634 299.38C634 304.79 629.52 309.17 624 309.17C618.47 309.17 614 304.79 614 299.38C614 293.98 618.47 289.6 624 289.6ZM584 250.46C584 245.06 588.47 240.68 594 240.68C599.52 240.68 604 245.06 604 250.46C604 255.87 599.52 260.25 594 260.25C594 265.65 589.52 270.03 584 270.03C578.47 270.03 574 265.65 574 260.25C574 254.84 578.47 250.46 584 250.46ZM594 258.29C598.41 258.29 602 254.79 602 250.46C602 246.14 598.41 242.64 594 242.64C589.58 242.64 586 246.14 586 250.46C586 254.79 589.58 258.29 594 258.29ZM634 297.43C638.41 297.43 642 293.92 642 289.6C642 285.28 638.41 281.77 634 281.77C629.58 281.77 626 285.28 626 289.6C626 293.92 629.58 297.43 634 297.43Z" fill="#000000" fill-opacity="1.000000" fill-rule="evenodd"/>
		<path id="Vector" d="M706 289.6C706 284.2 710.47 279.82 716 279.82C721.52 279.82 726 284.2 726 289.6C726 295 721.52 299.38 716 299.38C716 304.79 711.52 309.17 706 309.17C700.47 309.17 696 304.79 696 299.38C696 293.98 700.47 289.6 706 289.6ZM666 250.46C666 245.06 670.47 240.68 676 240.68C681.52 240.68 686 245.06 686 250.46C686 255.87 681.52 260.25 676 260.25C676 265.65 671.52 270.03 666 270.03C660.47 270.03 656 265.65 656 260.25C656 254.84 660.47 250.46 666 250.46ZM676 258.29C680.41 258.29 684 254.79 684 250.46C684 246.14 680.41 242.64 676 242.64C671.58 242.64 668 246.14 668 250.46C668 254.79 671.58 258.29 676 258.29ZM716 297.43C720.41 297.43 724 293.92 724 289.6C724 285.28 720.41 281.77 716 281.77C711.58 281.77 708 285.28 708 289.6C708 293.92 711.58 297.43 716 297.43Z" fill="#000000" fill-opacity="1.000000" fill-rule="evenodd"/>
		<path id="Vector" d="M788 289.6C788 284.2 792.47 279.82 798 279.82C803.52 279.82 808 284.2 808 289.6C808 295 803.52 299.38 798 299.38C798 304.79 793.52 309.17 788 309.17C782.47 309.17 778 304.79 778 299.38C778 293.98 782.47 289.6 788 289.6ZM748 250.46C748 245.06 752.47 240.68 758 240.68C763.52 240.68 768 245.06 768 250.46C768 255.87 763.52 260.25 758 260.25C758 265.65 753.52 270.03 748 270.03C742.47 270.03 738 265.65 738 260.25C738 254.84 742.47 250.46 748 250.46ZM758 258.29C762.41 258.29 766 254.79 766 250.46C766 246.14 762.41 242.64 758 242.64C753.58 242.64 750 246.14 750 250.46C750 254.79 753.58 258.29 758 258.29ZM798 297.43C802.41 297.43 806 293.92 806 289.6C806 285.28 802.41 281.77 798 281.77C793.58 281.77 790 285.28 790 289.6C790 293.92 793.58 297.43 798 297.43Z" fill="#000000" fill-opacity="1.000000" fill-rule="evenodd"/>
		<path id="Vector" d="M870 289.6C870 284.2 874.47 279.82 880 279.82C885.52 279.82 890 284.2 890 289.6C890 295 885.52 299.38 880 299.38C880 304.79 875.52 309.17 870 309.17C864.47 309.17 860 304.79 860 299.38C860 293.98 864.47 289.6 870 289.6ZM830 250.46C830 245.06 834.47 240.68 840 240.68C845.52 240.68 850 245.06 850 250.46C850 255.87 845.52 260.25 840 260.25C840 265.65 835.52 270.03 830 270.03C824.47 270.03 820 265.65 820 260.25C820 254.84 824.47 250.46 830 250.46ZM840 258.29C844.41 258.29 848 254.79 848 250.46C848 246.14 844.41 242.64 840 242.64C835.58 242.64 832 246.14 832 250.46C832 254.79 835.58 258.29 840 258.29ZM880 297.43C884.41 297.43 888 293.92 888 289.6C888 285.28 884.41 281.77 880 281.77C875.58 281.77 872 285.28 872 289.6C872 293.92 875.58 297.43 880 297.43Z" fill="#000000" fill-opacity="1.000000" fill-rule="evenodd"/>
		<path id="Vector" d="M952 289.6C952 284.2 956.47 279.82 962 279.82C967.52 279.82 972 284.2 972 289.6C972 295 967.52 299.38 962 299.38C962 304.79 957.52 309.17 952 309.17C946.47 309.17 942 304.79 942 299.38C942 293.98 946.47 289.6 952 289.6ZM912 250.46C912 245.06 916.47 240.68 922 240.68C927.52 240.68 932 245.06 932 250.46C932 255.87 927.52 260.25 922 260.25C922 265.65 917.52 270.03 912 270.03C906.47 270.03 902 265.65 902 260.25C902 254.84 906.47 250.46 912 250.46ZM922 258.29C926.41 258.29 930 254.79 930 250.46C930 246.14 926.41 242.64 922 242.64C917.58 242.64 914 246.14 914 250.46C914 254.79 917.58 258.29 922 258.29ZM962 297.43C966.41 297.43 970 293.92 970 289.6C970 285.28 966.41 281.77 962 281.77C957.58 281.77 954 285.28 954 289.6C954 293.92 957.58 297.43 962 297.43Z" fill="#000000" fill-opacity="1.000000" fill-rule="evenodd"/>
		<path id="Vector" d="M1034 48.91C1034 43.51 1038.48 39.13 1044 39.13C1049.52 39.13 1054 43.51 1054 48.91C1054 54.32 1049.52 58.7 1044 58.7C1044 64.1 1039.52 68.48 1034 68.48C1028.48 68.48 1024 64.1 1024 58.7C1024 53.3 1028.48 48.91 1034 48.91ZM994 9.78C994 4.38 998.47 0 1004 0C1009.52 0 1014 4.38 1014 9.78C1014 15.18 1009.52 19.56 1004 19.56C1004 24.97 999.52 29.35 994 29.35C988.47 29.35 984 24.97 984 19.56C984 14.16 988.47 9.78 994 9.78ZM1004 17.61C1008.42 17.61 1012 14.1 1012 9.78C1012 5.46 1008.42 1.95 1004 1.95C999.58 1.95 996 5.46 996 9.78C996 14.1 999.58 17.61 1004 17.61ZM1044 56.74C1048.42 56.74 1052 53.24 1052 48.91C1052 44.59 1048.42 41.09 1044 41.09C1039.57 41.09 1036 44.59 1036 48.91C1036 53.24 1039.57 56.74 1044 56.74Z" fill="#000000" fill-opacity="1.000000" fill-rule="evenodd"/>
		<path id="Vector" d="M1116 48.91C1116 43.51 1120.48 39.13 1126 39.13C1131.52 39.13 1136 43.51 1136 48.91C1136 54.32 1131.52 58.7 1126 58.7C1126 64.1 1121.52 68.48 1116 68.48C1110.48 68.48 1106 64.1 1106 58.7C1106 53.3 1110.48 48.91 1116 48.91ZM1076 9.78C1076 4.38 1080.48 0 1086 0C1091.52 0 1096 4.38 1096 9.78C1096 15.18 1091.52 19.56 1086 19.56C1086 24.97 1081.52 29.35 1076 29.35C1070.48 29.35 1066 24.97 1066 19.56C1066 14.16 1070.48 9.78 1076 9.78ZM1086 17.61C1090.42 17.61 1094 14.1 1094 9.78C1094 5.46 1090.42 1.95 1086 1.95C1081.57 1.95 1078 5.46 1078 9.78C1078 14.1 1081.57 17.61 1086 17.61ZM1126 56.74C1130.42 56.74 1134 53.24 1134 48.91C1134 44.59 1130.42 41.09 1126 41.09C1121.57 41.09 1118 44.59 1118 48.91C1118 53.24 1121.57 56.74 1126 56.74Z" fill="#000000" fill-opacity="1.000000" fill-rule="evenodd"/>
		<path id="Vector" d="M1198 48.91C1198 43.51 1202.48 39.13 1208 39.13C1213.52 39.13 1218 43.51 1218 48.91C1218 54.32 1213.52 58.7 1208 58.7C1208 64.1 1203.52 68.48 1198 68.48C1192.48 68.48 1188 64.1 1188 58.7C1188 53.3 1192.48 48.91 1198 48.91ZM1158 9.78C1158 4.38 1162.48 0 1168 0C1173.52 0 1178 4.38 1178 9.78C1178 15.18 1173.52 19.56 1168 19.56C1168 24.97 1163.52 29.35 1158 29.35C1152.48 29.35 1148 24.97 1148 19.56C1148 14.16 1152.48 9.78 1158 9.78ZM1168 17.61C1172.42 17.61 1176 14.1 1176 9.78C1176 5.46 1172.42 1.95 1168 1.95C1163.57 1.95 1160 5.46 1160 9.78C1160 14.1 1163.57 17.61 1168 17.61ZM1208 56.74C1212.42 56.74 1216 53.24 1216 48.91C1216 44.59 1212.42 41.09 1208 41.09C1203.57 41.09 1200 44.59 1200 48.91C1200 53.24 1203.57 56.74 1208 56.74Z" fill="#000000" fill-opacity="1.000000" fill-rule="evenodd"/>
		<path id="Vector" d="M1034 129.14C1034 123.74 1038.48 119.36 1044 119.36C1049.52 119.36 1054 123.74 1054 129.14C1054 134.55 1049.52 138.93 1044 138.93C1044 144.33 1039.52 148.71 1034 148.71C1028.48 148.71 1024 144.33 1024 138.93C1024 133.52 1028.48 129.14 1034 129.14ZM994 90.01C994 84.6 998.47 80.22 1004 80.22C1009.52 80.22 1014 84.6 1014 90.01C1014 95.41 1009.52 99.79 1004 99.79C1004 105.2 999.52 109.58 994 109.58C988.47 109.58 984 105.2 984 99.79C984 94.39 988.47 90.01 994 90.01ZM1004 97.83C1008.42 97.83 1012 94.33 1012 90.01C1012 85.68 1008.42 82.18 1004 82.18C999.58 82.18 996 85.68 996 90.01C996 94.33 999.58 97.83 1004 97.83ZM1044 136.97C1048.42 136.97 1052 133.47 1052 129.14C1052 124.82 1048.42 121.32 1044 121.32C1039.57 121.32 1036 124.82 1036 129.14C1036 133.47 1039.57 136.97 1044 136.97Z" fill="#000000" fill-opacity="1.000000" fill-rule="evenodd"/>
		<path id="Vector" d="M1116 129.14C1116 123.74 1120.48 119.36 1126 119.36C1131.52 119.36 1136 123.74 1136 129.14C1136 134.55 1131.52 138.93 1126 138.93C1126 144.33 1121.52 148.71 1116 148.71C1110.48 148.71 1106 144.33 1106 138.93C1106 133.52 1110.48 129.14 1116 129.14ZM1076 90.01C1076 84.6 1080.48 80.22 1086 80.22C1091.52 80.22 1096 84.6 1096 90.01C1096 95.41 1091.52 99.79 1086 99.79C1086 105.2 1081.52 109.58 1076 109.58C1070.48 109.58 1066 105.2 1066 99.79C1066 94.39 1070.48 90.01 1076 90.01ZM1086 97.83C1090.42 97.83 1094 94.33 1094 90.01C1094 85.68 1090.42 82.18 1086 82.18C1081.57 82.18 1078 85.68 1078 90.01C1078 94.33 1081.57 97.83 1086 97.83ZM1126 136.97C1130.42 136.97 1134 133.47 1134 129.14C1134 124.82 1130.42 121.32 1126 121.32C1121.57 121.32 1118 124.82 1118 129.14C1118 133.47 1121.57 136.97 1126 136.97Z" fill="#000000" fill-opacity="1.000000" fill-rule="evenodd"/>
		<path id="Vector" d="M1198 129.14C1198 123.74 1202.48 119.36 1208 119.36C1213.52 119.36 1218 123.74 1218 129.14C1218 134.55 1213.52 138.93 1208 138.93C1208 144.33 1203.52 148.71 1198 148.71C1192.48 148.71 1188 144.33 1188 138.93C1188 133.52 1192.48 129.14 1198 129.14ZM1158 90.01C1158 84.6 1162.48 80.22 1168 80.22C1173.52 80.22 1178 84.6 1178 90.01C1178 95.41 1173.52 99.79 1168 99.79C1168 105.2 1163.52 109.58 1158 109.58C1152.48 109.58 1148 105.2 1148 99.79C1148 94.39 1152.48 90.01 1158 90.01ZM1168 97.83C1172.42 97.83 1176 94.33 1176 90.01C1176 85.68 1172.42 82.18 1168 82.18C1163.57 82.18 1160 85.68 1160 90.01C1160 94.33 1163.57 97.83 1168 97.83ZM1208 136.97C1212.42 136.97 1216 133.47 1216 129.14C1216 124.82 1212.42 121.32 1208 121.32C1203.57 121.32 1200 124.82 1200 129.14C1200 133.47 1203.57 136.97 1208 136.97Z" fill="#000000" fill-opacity="1.000000" fill-rule="evenodd"/>
		<path id="Vector" d="M1034 209.37C1034 203.97 1038.48 199.59 1044 199.59C1049.52 199.59 1054 203.97 1054 209.37C1054 214.78 1049.52 219.16 1044 219.16C1044 224.56 1039.52 228.94 1034 228.94C1028.48 228.94 1024 224.56 1024 219.16C1024 213.75 1028.48 209.37 1034 209.37ZM994 170.24C994 164.83 998.47 160.45 1004 160.45C1009.52 160.45 1014 164.83 1014 170.24C1014 175.64 1009.52 180.02 1004 180.02C1004 185.42 999.52 189.8 994 189.8C988.47 189.8 984 185.42 984 180.02C984 174.62 988.47 170.24 994 170.24ZM1004 178.06C1008.42 178.06 1012 174.56 1012 170.24C1012 165.91 1008.42 162.41 1004 162.41C999.58 162.41 996 165.91 996 170.24C996 174.56 999.58 178.06 1004 178.06ZM1044 217.2C1048.42 217.2 1052 213.69 1052 209.37C1052 205.05 1048.42 201.54 1044 201.54C1039.57 201.54 1036 205.05 1036 209.37C1036 213.69 1039.57 217.2 1044 217.2Z" fill="#000000" fill-opacity="1.000000" fill-rule="evenodd"/>
		<path id="Vector" d="M1116 209.37C1116 203.97 1120.48 199.59 1126 199.59C1131.52 199.59 1136 203.97 1136 209.37C1136 214.78 1131.52 219.16 1126 219.16C1126 224.56 1121.52 228.94 1116 228.94C1110.48 228.94 1106 224.56 1106 219.16C1106 213.75 1110.48 209.37 1116 209.37ZM1076 170.24C1076 164.83 1080.48 160.45 1086 160.45C1091.52 160.45 1096 164.83 1096 170.24C1096 175.64 1091.52 180.02 1086 180.02C1086 185.42 1081.52 189.8 1076 189.8C1070.48 189.8 1066 185.42 1066 180.02C1066 174.62 1070.48 170.24 1076 170.24ZM1086 178.06C1090.42 178.06 1094 174.56 1094 170.24C1094 165.91 1090.42 162.41 1086 162.41C1081.57 162.41 1078 165.91 1078 170.24C1078 174.56 1081.57 178.06 1086 178.06ZM1126 217.2C1130.42 217.2 1134 213.69 1134 209.37C1134 205.05 1130.42 201.54 1126 201.54C1121.57 201.54 1118 205.05 1118 209.37C1118 213.69 1121.57 217.2 1126 217.2Z" fill="#000000" fill-opacity="1.000000" fill-rule="evenodd"/>
		<path id="Vector" d="M1198 209.37C1198 203.97 1202.48 199.59 1208 199.59C1213.52 199.59 1218 203.97 1218 209.37C1218 214.78 1213.52 219.16 1208 219.16C1208 224.56 1203.52 228.94 1198 228.94C1192.48 228.94 1188 224.56 1188 219.16C1188 213.75 1192.48 209.37 1198 209.37ZM1158 170.24C1158 164.83 1162.48 160.45 1168 160.45C1173.52 160.45 1178 164.83 1178 170.24C1178 175.64 1173.52 180.02 1168 180.02C1168 185.42 1163.52 189.8 1158 189.8C1152.48 189.8 1148 185.42 1148 180.02C1148 174.62 1152.48 170.24 1158 170.24ZM1168 178.06C1172.42 178.06 1176 174.56 1176 170.24C1176 165.91 1172.42 162.41 1168 162.41C1163.57 162.41 1160 165.91 1160 170.24C1160 174.56 1163.57 178.06 1168 178.06ZM1208 217.2C1212.42 217.2 1216 213.69 1216 209.37C1216 205.05 1212.42 201.54 1208 201.54C1203.57 201.54 1200 205.05 1200 209.37C1200 213.69 1203.57 217.2 1208 217.2Z" fill="#000000" fill-opacity="1.000000" fill-rule="evenodd"/>
		<path id="Vector" d="M1034 289.6C1034 284.2 1038.48 279.82 1044 279.82C1049.52 279.82 1054 284.2 1054 289.6C1054 295 1049.52 299.38 1044 299.38C1044 304.79 1039.52 309.17 1034 309.17C1028.48 309.17 1024 304.79 1024 299.38C1024 293.98 1028.48 289.6 1034 289.6ZM994 250.46C994 245.06 998.47 240.68 1004 240.68C1009.52 240.68 1014 245.06 1014 250.46C1014 255.87 1009.52 260.25 1004 260.25C1004 265.65 999.52 270.03 994 270.03C988.47 270.03 984 265.65 984 260.25C984 254.84 988.47 250.46 994 250.46ZM1004 258.29C1008.42 258.29 1012 254.79 1012 250.46C1012 246.14 1008.42 242.64 1004 242.64C999.58 242.64 996 246.14 996 250.46C996 254.79 999.58 258.29 1004 258.29ZM1044 297.43C1048.42 297.43 1052 293.92 1052 289.6C1052 285.28 1048.42 281.77 1044 281.77C1039.57 281.77 1036 285.28 1036 289.6C1036 293.92 1039.57 297.43 1044 297.43Z" fill="#000000" fill-opacity="1.000000" fill-rule="evenodd"/>
		<path id="Vector" d="M1116 289.6C1116 284.2 1120.48 279.82 1126 279.82C1131.52 279.82 1136 284.2 1136 289.6C1136 295 1131.52 299.38 1126 299.38C1126 304.79 1121.52 309.17 1116 309.17C1110.48 309.17 1106 304.79 1106 299.38C1106 293.98 1110.48 289.6 1116 289.6ZM1076 250.46C1076 245.06 1080.48 240.68 1086 240.68C1091.52 240.68 1096 245.06 1096 250.46C1096 255.87 1091.52 260.25 1086 260.25C1086 265.65 1081.52 270.03 1076 270.03C1070.48 270.03 1066 265.65 1066 260.25C1066 254.84 1070.48 250.46 1076 250.46ZM1086 258.29C1090.42 258.29 1094 254.79 1094 250.46C1094 246.14 1090.42 242.64 1086 242.64C1081.57 242.64 1078 246.14 1078 250.46C1078 254.79 1081.57 258.29 1086 258.29ZM1126 297.43C1130.42 297.43 1134 293.92 1134 289.6C1134 285.28 1130.42 281.77 1126 281.77C1121.57 281.77 1118 285.28 1118 289.6C1118 293.92 1121.57 297.43 1126 297.43Z" fill="#000000" fill-opacity="1.000000" fill-rule="evenodd"/>
		<path id="Vector" d="M1198 289.6C1198 284.2 1202.48 279.82 1208 279.82C1213.52 279.82 1218 284.2 1218 289.6C1218 295 1213.52 299.38 1208 299.38C1208 304.79 1203.52 309.17 1198 309.17C1192.48 309.17 1188 304.79 1188 299.38C1188 293.98 1192.48 289.6 1198 289.6ZM1158 250.46C1158 245.06 1162.48 240.68 1168 240.68C1173.52 240.68 1178 245.06 1178 250.46C1178 255.87 1173.52 260.25 1168 260.25C1168 265.65 1163.52 270.03 1158 270.03C1152.48 270.03 1148 265.65 1148 260.25C1148 254.84 1152.48 250.46 1158 250.46ZM1168 258.29C1172.42 258.29 1176 254.79 1176 250.46C1176 246.14 1172.42 242.64 1168 242.64C1163.57 242.64 1160 246.14 1160 250.46C1160 254.79 1163.57 258.29 1168 258.29ZM1208 297.43C1212.42 297.43 1216 293.92 1216 289.6C1216 285.28 1212.42 281.77 1208 281.77C1203.57 281.77 1200 285.28 1200 289.6C1200 293.92 1203.57 297.43 1208 297.43Z" fill="#000000" fill-opacity="1.000000" fill-rule="evenodd"/>
	</g>
</svg>
