<svg width="18" height="16" viewBox="0 0 18 16" fill="none" xmlns="http://www.w3.org/2000/svg">
<path fill-rule="evenodd" clip-rule="evenodd" d="M7.54884 1H10.2951C10.6727 1 10.9817 1.3 10.9817 1.66667C10.9817 2.03333 10.6727 2.33333 10.2951 2.33333H7.54884C7.17122 2.33333 6.86227 2.03333 6.86227 1.66667C6.86227 1.3 7.17122 1 7.54884 1ZM9.60856 9C9.60856 9.36667 9.2996 9.66667 8.92198 9.66667C8.54437 9.66667 8.23541 9.36667 8.23541 9V6.33333C8.23541 5.96667 8.54437 5.66667 8.92198 5.66667C9.2996 5.66667 9.60856 5.96667 9.60856 6.33333V9ZM13.7485 5.26L14.2635 4.76C14.5244 4.50667 14.5312 4.08667 14.2635 3.82667L14.2566 3.82C13.9888 3.56 13.5632 3.56667 13.2954 3.82L12.7805 4.32C11.7163 3.49333 10.3775 3 8.92195 3C5.6264 3 2.82519 5.64 2.7428 8.84C2.65355 12.2267 5.4479 15 8.92195 15C12.3411 15 15.1011 12.3133 15.1011 9C15.1011 7.58667 14.593 6.28667 13.7485 5.26ZM4.11598 9C4.11598 11.58 6.26495 13.6667 8.92198 13.6667C11.579 13.6667 13.728 11.58 13.728 9C13.728 6.42 11.579 4.33333 8.92198 4.33333C6.26495 4.33333 4.11598 6.42 4.11598 9Z" fill="#F2726F"/>
</svg>
