<svg width="26" height="24" viewBox="0 0 26 24" fill="none" xmlns="http://www.w3.org/2000/svg">
<path d="M23.656 6C22.863 6.35 22.0083 6.58 21.1226 6.69C22.0288 6.16 22.7292 5.32 23.0587 4.31C22.2039 4.81 21.2565 5.16 20.2575 5.36C19.4439 4.5 18.3008 4 17.0031 4C14.583 4 12.6056 5.92 12.6056 8.29C12.6056 8.63 12.6468 8.96 12.7189 9.27C9.05259 9.09 5.78793 7.38 3.61493 4.79C3.23388 5.42 3.01761 6.16 3.01761 6.94C3.01761 8.43 3.79 9.75 4.98464 10.5C4.25344 10.5 3.57373 10.3 2.97641 10C2.97641 10 2.97641 10 2.97641 10.03C2.97641 12.11 4.50061 13.85 6.51914 14.24C6.14839 14.34 5.75704 14.39 5.35539 14.39C5.07733 14.39 4.79927 14.36 4.5315 14.31C5.08763 16 6.70451 17.26 8.65095 17.29C7.14735 18.45 5.24211 19.13 3.16179 19.13C2.81163 19.13 2.46148 19.11 2.11133 19.07C4.06806 20.29 6.39555 21 8.88782 21C17.0031 21 21.4624 14.46 21.4624 8.79C21.4624 8.6 21.4624 8.42 21.4521 8.23C22.3172 7.63 23.0587 6.87 23.656 6Z" fill="#F2726F"/>
</svg>
