<svg width="25" height="24" viewBox="0 0 25 24" fill="none" xmlns="http://www.w3.org/2000/svg">
<path d="M10.3322 15L15.6771 12L10.3322 9V15ZM22.2374 7.17C22.3712 7.64 22.4639 8.27 22.5257 9.07C22.5978 9.87 22.6287 10.56 22.6287 11.16L22.6905 12C22.6905 14.19 22.5257 15.8 22.2374 16.83C21.9799 17.73 21.3826 18.31 20.4557 18.56C19.9717 18.69 19.086 18.78 17.7266 18.84C16.3877 18.91 15.1622 18.94 14.0294 18.94L12.3919 19C8.07676 19 5.38882 18.84 4.32806 18.56C3.40119 18.31 2.80387 17.73 2.5464 16.83C2.41252 16.36 2.31983 15.73 2.25804 14.93C2.18595 14.13 2.15505 13.44 2.15505 12.84L2.09326 12C2.09326 9.81 2.25804 8.2 2.5464 7.17C2.80387 6.27 3.40119 5.69 4.32806 5.44C4.8121 5.31 5.69778 5.22 7.05719 5.16C8.39601 5.09 9.62155 5.06 10.7544 5.06L12.3919 5C16.707 5 19.3949 5.16 20.4557 5.44C21.3826 5.69 21.9799 6.27 22.2374 7.17Z" fill="#F2726F"/>
</svg>
